<svg width="49" height="47" viewBox="0 0 49 47" fill="none" xmlns="http://www.w3.org/2000/svg">
<path id="Vector" d="M21.43 43.4995L22.362 42.5229L21.43 43.4995C20.1435 42.2719 20.1276 40.2232 21.3949 38.9757L31.9027 28.6326C32.1896 28.3502 31.9897 27.8619 31.587 27.8619L5.20039 27.8619C3.4607 27.8619 2.05039 26.4516 2.05039 24.7119L2.05039 23.0582C2.05039 21.3185 3.46069 19.9082 5.20039 19.9082L31.5679 19.9082C31.9712 19.9082 32.1709 19.4186 31.8826 19.1366L21.3899 8.87091C20.1267 7.63506 20.1272 5.60207 21.3909 4.36675L22.6498 3.13613C23.8748 1.93862 25.8323 1.93965 27.056 3.13844L45.9378 21.6348C47.1987 22.87 47.1987 24.9001 45.9378 26.1353L27.0409 44.6465C25.8277 45.8349 23.8907 45.8476 22.662 44.6751L21.43 43.4995Z" fill="#8D4BF6" stroke="white" stroke-width="2.7"/>
</svg>
