<svg width="48" height="47" viewBox="0 0 48 47" fill="none" xmlns="http://www.w3.org/2000/svg">
<path id="Vector" d="M25.6437 2.22477L26.8756 3.40036C28.1622 4.62805 28.1781 6.67667 26.9107 7.92417L16.403 18.2673C16.116 18.5497 16.316 19.038 16.7186 19.038L43.1053 19.038C44.845 19.038 46.2553 20.4483 46.2553 22.188L46.2553 23.8417C46.2553 25.5814 44.845 26.9917 43.1053 26.9917L16.7378 26.9917C16.3345 26.9917 16.1348 27.4813 16.4231 27.7633L26.9157 38.029C28.1789 39.2648 28.1785 41.2978 26.9148 42.5332L25.6559 43.7638C24.4309 44.9613 22.4734 44.9602 21.2496 43.7615L2.36791 25.2651C1.10699 24.0299 1.10699 21.9998 2.36791 20.7646L21.2647 2.25345C22.478 1.06497 24.415 1.05228 25.6437 2.22477Z" fill="#8D4BF6" stroke="white" stroke-width="2.7"/>
</svg>
