<svg width="348" height="41" viewBox="0 0 348 41" fill="none" xmlns="http://www.w3.org/2000/svg">
<mask id="mask0_1035_3887" style="mask-type:alpha" maskUnits="userSpaceOnUse" x="3" y="16" width="335" height="7">
<rect x="3" y="16.52" width="334.268" height="6" fill="white"/>
</mask>
<g mask="url(#mask0_1035_3887)">
<rect width="7.4329" height="8.42703" transform="matrix(0.994265 0.106943 -0.430171 0.902747 4.05396 15.3201)" fill="white"/>
<rect width="7.4329" height="8.42703" transform="matrix(0.994265 0.106943 -0.430171 0.902747 11.6313 15.3201)" fill="#00BCB1"/>
<rect width="7.4329" height="8.42703" transform="matrix(0.994265 0.106943 -0.430171 0.902747 19.2083 15.3201)" fill="white"/>
<rect width="7.4329" height="8.42703" transform="matrix(0.994265 0.106943 -0.430171 0.902747 26.7854 15.3201)" fill="#00BCB1"/>
<rect width="7.4329" height="8.42703" transform="matrix(0.994265 0.106943 -0.430171 0.902748 34.3628 15.3201)" fill="white"/>
<rect width="7.4329" height="8.42703" transform="matrix(0.994265 0.106943 -0.430171 0.902748 41.9402 15.3201)" fill="#00BCB1"/>
<rect width="7.4329" height="8.42703" transform="matrix(0.994265 0.106943 -0.430171 0.902748 49.5173 15.3201)" fill="white"/>
<rect width="7.43291" height="8.42703" transform="matrix(0.994265 0.106943 -0.430171 0.902747 57.0947 15.3201)" fill="#00BCB1"/>
<rect width="7.43291" height="8.42703" transform="matrix(0.994265 0.106943 -0.430171 0.902747 64.6721 15.3201)" fill="white"/>
<rect width="7.4329" height="8.42703" transform="matrix(0.994265 0.106943 -0.430171 0.902748 72.2495 15.3201)" fill="#00BCB1"/>
<rect width="7.43291" height="8.42703" transform="matrix(0.994265 0.106943 -0.430171 0.902747 79.8269 15.3201)" fill="white"/>
<rect width="7.43291" height="8.42703" transform="matrix(0.994265 0.106943 -0.430171 0.902747 87.4043 15.3201)" fill="#00BCB1"/>
<rect width="7.4329" height="8.42703" transform="matrix(0.994265 0.106943 -0.430171 0.902748 94.9814 15.3201)" fill="white"/>
<rect width="7.43291" height="8.42703" transform="matrix(0.994265 0.106943 -0.430171 0.902747 102.559 15.3201)" fill="#00BCB1"/>
<rect width="7.43291" height="8.42703" transform="matrix(0.994265 0.106943 -0.430171 0.902747 110.136 15.3201)" fill="white"/>
<rect width="7.43291" height="8.42703" transform="matrix(0.994265 0.106943 -0.430171 0.902747 117.714 15.3201)" fill="#00BCB1"/>
<rect width="7.4329" height="8.42703" transform="matrix(0.994265 0.106943 -0.430171 0.902748 125.291 15.3201)" fill="white"/>
<rect width="7.43291" height="8.42703" transform="matrix(0.994265 0.106943 -0.430171 0.902747 132.868 15.3201)" fill="#00BCB1"/>
<rect width="7.4329" height="8.42703" transform="matrix(0.994265 0.106943 -0.430171 0.902748 140.445 15.3201)" fill="white"/>
<rect width="7.4329" height="8.42703" transform="matrix(0.994265 0.106943 -0.430171 0.902748 148.022 15.3201)" fill="#00BCB1"/>
<rect width="7.4329" height="8.42703" transform="matrix(0.994265 0.106943 -0.430171 0.902748 155.599 15.3201)" fill="white"/>
<rect width="7.4329" height="8.42703" transform="matrix(0.994265 0.106943 -0.430171 0.902748 163.177 15.3201)" fill="#00BCB1"/>
<rect width="7.43291" height="8.42703" transform="matrix(0.994265 0.106943 -0.430171 0.902747 170.754 15.3201)" fill="white"/>
<rect width="7.4329" height="8.42703" transform="matrix(0.994265 0.106943 -0.430171 0.902748 178.332 15.3201)" fill="#00BCB1"/>
<rect width="7.43291" height="8.42703" transform="matrix(0.994265 0.106943 -0.430171 0.902747 185.909 15.3201)" fill="white"/>
<rect width="7.43291" height="8.42703" transform="matrix(0.994265 0.106943 -0.430171 0.902747 193.486 15.3201)" fill="#00BCB1"/>
<rect width="7.4329" height="8.42703" transform="matrix(0.994265 0.106943 -0.430171 0.902748 201.064 15.3201)" fill="white"/>
<rect width="7.4329" height="8.42703" transform="matrix(0.994265 0.106943 -0.430171 0.902748 208.641 15.3201)" fill="#00BCB1"/>
<rect width="7.4329" height="8.42703" transform="matrix(0.994265 0.106943 -0.430171 0.902748 216.219 15.3201)" fill="white"/>
<rect width="7.4329" height="8.42703" transform="matrix(0.994265 0.106943 -0.430171 0.902748 223.796 15.3201)" fill="#00BCB1"/>
<rect width="7.43291" height="8.42703" transform="matrix(0.994265 0.106943 -0.430171 0.902747 231.373 15.3201)" fill="white"/>
<rect width="7.43291" height="8.42703" transform="matrix(0.994265 0.106943 -0.430171 0.902747 238.95 15.3201)" fill="#00BCB1"/>
<rect width="7.4329" height="8.42703" transform="matrix(0.994265 0.106943 -0.430171 0.902748 246.527 15.3201)" fill="white"/>
<rect width="7.4329" height="8.42703" transform="matrix(0.994265 0.106943 -0.430171 0.902748 254.105 15.3201)" fill="#00BCB1"/>
<rect width="7.43289" height="8.42703" transform="matrix(0.994265 0.106943 -0.43017 0.902748 261.682 15.3201)" fill="white"/>
<rect width="7.43291" height="8.42703" transform="matrix(0.994265 0.106943 -0.430171 0.902747 269.26 15.3201)" fill="#00BCB1"/>
<rect width="7.43289" height="8.42703" transform="matrix(0.994265 0.106943 -0.43017 0.902748 276.837 15.3201)" fill="white"/>
<rect width="7.43291" height="8.42703" transform="matrix(0.994265 0.106943 -0.430171 0.902747 284.414 15.3201)" fill="#00BCB1"/>
<rect width="7.43289" height="8.42703" transform="matrix(0.994265 0.106943 -0.43017 0.902748 291.992 15.3201)" fill="white"/>
<rect width="7.43291" height="8.42703" transform="matrix(0.994265 0.106943 -0.430171 0.902747 299.569 15.3201)" fill="#00BCB1"/>
<rect width="7.43291" height="8.42703" transform="matrix(0.994265 0.106943 -0.430171 0.902747 307.146 15.3201)" fill="white"/>
<rect width="7.43291" height="8.42703" transform="matrix(0.994265 0.106943 -0.430171 0.902747 314.723 15.3201)" fill="#00BCB1"/>
<rect width="7.43289" height="8.42703" transform="matrix(0.994265 0.106943 -0.43017 0.902748 322.301 15.3201)" fill="white"/>
<rect width="7.43291" height="8.42703" transform="matrix(0.994265 0.106943 -0.430171 0.902747 329.877 15.3201)" fill="#00BCB1"/>
</g>
<rect x="36" y="2.52002" width="37" height="35" rx="17.5" fill="white"/>
<rect x="36" y="2.52002" width="37" height="35" rx="17.5" stroke="white" stroke-width="5.04" stroke-linecap="round" stroke-linejoin="round" stroke-dasharray="5.04 5.04"/>
<path d="M51.68 29.02C50.96 29.02 50.288 28.94 49.664 28.78C49.056 28.62 48.56 28.316 48.176 27.868C47.792 27.42 47.6 26.756 47.6 25.876C47.6 25.14 47.768 24.524 48.104 24.028C48.44 23.532 48.856 23.108 49.352 22.756C49.848 22.404 50.328 22.084 50.792 21.796L54.512 19.468C55.12 19.084 55.52 18.764 55.712 18.508C55.904 18.252 56 17.972 56 17.668C56 17.396 55.912 17.164 55.736 16.972C55.576 16.78 55.192 16.684 54.584 16.684C53.992 16.684 53.368 16.748 52.712 16.876C52.056 17.004 51.424 17.068 50.816 17.068C49.936 17.068 49.216 16.86 48.656 16.444C48.112 16.012 47.84 15.38 47.84 14.548C47.84 13.748 48.128 13.124 48.704 12.676C49.28 12.212 50.056 11.884 51.032 11.692C52.024 11.5 53.128 11.404 54.344 11.404C56.312 11.404 57.832 11.772 58.904 12.508C59.992 13.244 60.536 14.388 60.536 15.94C60.536 17.012 60.224 17.924 59.6 18.676C58.992 19.428 58.144 20.164 57.056 20.884L52.616 23.812H58.112C59.008 23.812 59.712 24.036 60.224 24.484C60.752 24.916 61.016 25.564 61.016 26.428C61.016 27.292 60.752 27.94 60.224 28.372C59.712 28.804 59.008 29.02 58.112 29.02H51.68Z" fill="#E11B54" fill-opacity="0.86"/>
<rect x="3" y="9.52002" width="22.68" height="21" rx="10.5" fill="white"/>
<rect x="3" y="9.52002" width="22.68" height="21" rx="10.5" stroke="white" stroke-width="5.04" stroke-linecap="round" stroke-linejoin="round" stroke-dasharray="5.04 5.04"/>
<path d="M14.4598 26.052C13.9372 26.052 13.5318 25.892 13.2438 25.572C12.9558 25.252 12.8118 24.8574 12.8118 24.388V18.66H12.4918C12.4172 18.9054 12.2572 19.124 12.0118 19.316C11.7665 19.508 11.4572 19.604 11.0838 19.604C10.6785 19.604 10.3212 19.4707 10.0118 19.204C9.71318 18.9267 9.56384 18.5427 9.56384 18.052C9.56384 17.6787 9.64918 17.364 9.81984 17.108C9.99051 16.852 10.2092 16.6014 10.4758 16.356L11.6438 15.316C12.0492 14.9534 12.4278 14.692 12.7798 14.532C13.1318 14.3614 13.5372 14.276 13.9958 14.276C14.3692 14.276 14.7158 14.356 15.0358 14.516C15.3558 14.676 15.6118 14.9267 15.8038 15.268C16.0065 15.5987 16.1078 16.036 16.1078 16.58V24.388C16.1078 24.8574 15.9692 25.252 15.6918 25.572C15.4145 25.892 15.0038 26.052 14.4598 26.052Z" fill="#E11B54" fill-opacity="0.86"/>
<rect x="322" y="9.52002" width="22.68" height="21" rx="10.5" fill="white"/>
<rect x="322" y="9.52002" width="22.68" height="21" rx="10.5" stroke="white" stroke-width="5.04" stroke-linecap="round" stroke-linejoin="round" stroke-dasharray="5.04 5.04"/>
<path d="M332.092 25.504C331.324 25.4934 330.609 25.4294 329.948 25.312C329.297 25.1947 328.769 24.9814 328.364 24.672C327.969 24.3627 327.772 23.9307 327.772 23.376C327.772 22.8107 327.921 22.3787 328.22 22.08C328.529 21.7707 328.913 21.616 329.372 21.616C329.948 21.616 330.455 21.6534 330.892 21.728C331.34 21.8027 331.825 21.84 332.348 21.84C332.796 21.84 333.095 21.7707 333.244 21.632C333.404 21.4934 333.484 21.3014 333.484 21.056C333.484 20.5334 333.063 20.272 332.22 20.272H331.308C330.945 20.272 330.684 20.1867 330.524 20.016C330.364 19.8347 330.284 19.6214 330.284 19.376C330.284 19.12 330.364 18.9067 330.524 18.736C330.684 18.5654 330.945 18.48 331.308 18.48H332.22C332.615 18.48 332.876 18.4054 333.004 18.256C333.132 18.096 333.196 17.8987 333.196 17.664C333.196 17.472 333.127 17.3227 332.988 17.216C332.849 17.1094 332.604 17.056 332.252 17.056C331.825 17.056 331.393 17.1094 330.956 17.216C330.519 17.3227 330.065 17.376 329.596 17.376C329.095 17.376 328.668 17.2694 328.316 17.056C327.975 16.832 327.804 16.4107 327.804 15.792C327.804 15.3654 327.927 15.024 328.172 14.768C328.428 14.5014 328.769 14.2987 329.196 14.16C329.623 14.0107 330.092 13.9094 330.604 13.856C331.127 13.8027 331.66 13.776 332.204 13.776C332.972 13.776 333.671 13.872 334.3 14.064C334.929 14.2454 335.431 14.544 335.804 14.96C336.188 15.376 336.38 15.9414 336.38 16.656C336.38 17.4347 336.129 18.064 335.628 18.544C335.137 19.0134 334.487 19.248 333.676 19.248V19.6C334.22 19.6 334.705 19.6907 335.132 19.872C335.569 20.0427 335.916 20.32 336.172 20.704C336.428 21.088 336.556 21.6 336.556 22.24C336.556 22.9654 336.353 23.5734 335.948 24.064C335.543 24.544 335.004 24.9067 334.332 25.152C333.66 25.3867 332.913 25.504 332.092 25.504Z" fill="#E11B54" fill-opacity="0.86"/>
</svg>
