<svg width="348" height="41" viewBox="0 0 348 41" fill="none" xmlns="http://www.w3.org/2000/svg">
<mask id="mask0_1035_3296" style="mask-type:alpha" maskUnits="userSpaceOnUse" x="3" y="16" width="335" height="7">
<rect x="3" y="16.52" width="334.268" height="6" fill="white"/>
</mask>
<g mask="url(#mask0_1035_3296)">
<rect width="7.4329" height="8.42703" transform="matrix(0.994265 0.106943 -0.430171 0.902747 4.05371 15.3201)" fill="white"/>
<rect width="7.4329" height="8.42703" transform="matrix(0.994265 0.106943 -0.430171 0.902747 11.6313 15.3201)" fill="#00BCB1"/>
<rect width="7.4329" height="8.42703" transform="matrix(0.994265 0.106943 -0.430171 0.902747 19.2085 15.3201)" fill="white"/>
<rect width="7.4329" height="8.42703" transform="matrix(0.994265 0.106943 -0.430171 0.902747 26.7852 15.3201)" fill="#00BCB1"/>
<rect width="7.4329" height="8.42703" transform="matrix(0.994265 0.106943 -0.430171 0.902748 34.3628 15.3201)" fill="white"/>
<rect width="7.4329" height="8.42703" transform="matrix(0.994265 0.106943 -0.430171 0.902748 41.9404 15.3201)" fill="#00BCB1"/>
<rect width="7.4329" height="8.42703" transform="matrix(0.994265 0.106943 -0.430171 0.902748 49.5176 15.3201)" fill="white"/>
<rect width="7.43291" height="8.42703" transform="matrix(0.994265 0.106943 -0.430171 0.902747 57.0947 15.3201)" fill="#00BCB1"/>
<rect width="7.43291" height="8.42703" transform="matrix(0.994265 0.106943 -0.430171 0.902747 64.6724 15.3201)" fill="white"/>
<rect width="7.4329" height="8.42703" transform="matrix(0.994265 0.106943 -0.430171 0.902748 72.25 15.3201)" fill="#00BCB1"/>
<rect width="7.43291" height="8.42703" transform="matrix(0.994265 0.106943 -0.430171 0.902747 79.8271 15.3201)" fill="white"/>
<rect width="7.43291" height="8.42703" transform="matrix(0.994265 0.106943 -0.430171 0.902747 87.4043 15.3201)" fill="#00BCB1"/>
<rect width="7.4329" height="8.42703" transform="matrix(0.994265 0.106943 -0.430171 0.902748 94.9814 15.3201)" fill="white"/>
<rect width="7.43291" height="8.42703" transform="matrix(0.994265 0.106943 -0.430171 0.902747 102.559 15.3201)" fill="#00BCB1"/>
<rect width="7.43291" height="8.42703" transform="matrix(0.994265 0.106943 -0.430171 0.902747 110.136 15.3201)" fill="white"/>
<rect width="7.43291" height="8.42703" transform="matrix(0.994265 0.106943 -0.430171 0.902747 117.714 15.3201)" fill="#00BCB1"/>
<rect width="7.4329" height="8.42703" transform="matrix(0.994265 0.106943 -0.430171 0.902748 125.291 15.3201)" fill="white"/>
<rect width="7.43291" height="8.42703" transform="matrix(0.994265 0.106943 -0.430171 0.902747 132.868 15.3201)" fill="#00BCB1"/>
<rect width="7.4329" height="8.42703" transform="matrix(0.994265 0.106943 -0.430171 0.902748 140.444 15.3201)" fill="white"/>
<rect width="7.4329" height="8.42703" transform="matrix(0.994265 0.106943 -0.430171 0.902748 148.022 15.3201)" fill="#00BCB1"/>
<rect width="7.4329" height="8.42703" transform="matrix(0.994265 0.106943 -0.430171 0.902748 155.6 15.3201)" fill="white"/>
<rect width="7.4329" height="8.42703" transform="matrix(0.994265 0.106943 -0.430171 0.902748 163.177 15.3201)" fill="#00BCB1"/>
<rect width="7.43291" height="8.42703" transform="matrix(0.994265 0.106943 -0.430171 0.902747 170.754 15.3201)" fill="white"/>
<rect width="7.4329" height="8.42703" transform="matrix(0.994265 0.106943 -0.430171 0.902748 178.332 15.3201)" fill="#00BCB1"/>
<rect width="7.43291" height="8.42703" transform="matrix(0.994265 0.106943 -0.430171 0.902747 185.909 15.3201)" fill="white"/>
<rect width="7.43291" height="8.42703" transform="matrix(0.994265 0.106943 -0.430171 0.902747 193.486 15.3201)" fill="#00BCB1"/>
<rect width="7.4329" height="8.42703" transform="matrix(0.994265 0.106943 -0.430171 0.902748 201.063 15.3201)" fill="white"/>
<rect width="7.4329" height="8.42703" transform="matrix(0.994265 0.106943 -0.430171 0.902748 208.641 15.3201)" fill="#00BCB1"/>
<rect width="7.4329" height="8.42703" transform="matrix(0.994265 0.106943 -0.430171 0.902748 216.218 15.3201)" fill="white"/>
<rect width="7.4329" height="8.42703" transform="matrix(0.994265 0.106943 -0.430171 0.902748 223.795 15.3201)" fill="#00BCB1"/>
<rect width="7.43291" height="8.42703" transform="matrix(0.994265 0.106943 -0.430171 0.902747 231.373 15.3201)" fill="white"/>
<rect width="7.43291" height="8.42703" transform="matrix(0.994265 0.106943 -0.430171 0.902747 238.95 15.3201)" fill="#00BCB1"/>
<rect width="7.4329" height="8.42703" transform="matrix(0.994265 0.106943 -0.430171 0.902748 246.527 15.3201)" fill="white"/>
<rect width="7.4329" height="8.42703" transform="matrix(0.994265 0.106943 -0.430171 0.902748 254.105 15.3201)" fill="#00BCB1"/>
<rect width="7.43289" height="8.42703" transform="matrix(0.994265 0.106943 -0.43017 0.902748 261.683 15.3201)" fill="white"/>
<rect width="7.43291" height="8.42703" transform="matrix(0.994265 0.106943 -0.430171 0.902747 269.26 15.3201)" fill="#00BCB1"/>
<rect width="7.43289" height="8.42703" transform="matrix(0.994265 0.106943 -0.43017 0.902748 276.837 15.3201)" fill="white"/>
<rect width="7.43291" height="8.42703" transform="matrix(0.994265 0.106943 -0.430171 0.902747 284.414 15.3201)" fill="#00BCB1"/>
<rect width="7.43289" height="8.42703" transform="matrix(0.994265 0.106943 -0.43017 0.902748 291.992 15.3201)" fill="white"/>
<rect width="7.43291" height="8.42703" transform="matrix(0.994265 0.106943 -0.430171 0.902747 299.569 15.3201)" fill="#00BCB1"/>
<rect width="7.43291" height="8.42703" transform="matrix(0.994265 0.106943 -0.430171 0.902747 307.146 15.3201)" fill="white"/>
<rect width="7.43291" height="8.42703" transform="matrix(0.994265 0.106943 -0.430171 0.902747 314.723 15.3201)" fill="#00BCB1"/>
<rect width="7.43289" height="8.42703" transform="matrix(0.994265 0.106943 -0.43017 0.902748 322.3 15.3201)" fill="white"/>
<rect width="7.43291" height="8.42703" transform="matrix(0.994265 0.106943 -0.430171 0.902747 329.877 15.3201)" fill="#00BCB1"/>
</g>
<rect x="117" y="2.52002" width="37" height="35" rx="17.5" fill="white"/>
<rect x="117" y="2.52002" width="37" height="35" rx="17.5" stroke="white" stroke-width="5.04" stroke-linecap="round" stroke-linejoin="round" stroke-dasharray="5.04 5.04"/>
<path d="M137.92 29.02C137.12 29.02 136.512 28.796 136.096 28.348C135.68 27.884 135.472 27.308 135.472 26.62V24.076H135.112C135.032 24.428 134.856 24.788 134.584 25.156C134.312 25.524 133.92 25.828 133.408 26.068C132.896 26.308 132.24 26.428 131.44 26.428C130.8 26.428 130.184 26.308 129.592 26.068C129.016 25.812 128.544 25.436 128.176 24.94C127.824 24.428 127.648 23.796 127.648 23.044C127.648 22.452 127.768 21.884 128.008 21.34C128.264 20.78 128.664 20.092 129.208 19.276L132.28 14.668C133.016 13.58 133.744 12.764 134.464 12.22C135.2 11.676 136.016 11.404 136.912 11.404C137.536 11.404 138.104 11.516 138.616 11.74C139.144 11.948 139.568 12.316 139.888 12.844C140.208 13.372 140.368 14.092 140.368 15.004V21.172C140.368 21.172 140.456 21.164 140.632 21.148C140.808 21.116 141 21.1 141.208 21.1C141.752 21.1 142.232 21.26 142.648 21.58C143.064 21.884 143.272 22.436 143.272 23.236C143.272 24.02 143.064 24.572 142.648 24.892C142.232 25.212 141.752 25.372 141.208 25.372C141 25.372 140.808 25.356 140.632 25.324C140.456 25.292 140.368 25.276 140.368 25.276V26.62C140.368 27.308 140.16 27.884 139.744 28.348C139.344 28.796 138.736 29.02 137.92 29.02ZM132.424 20.812C132.312 20.972 132.296 21.108 132.376 21.22C132.456 21.332 132.576 21.388 132.736 21.388H135.472V16.588H135.208L132.424 20.812Z" fill="#E11B54" fill-opacity="0.86"/>
<rect x="3" y="9.52002" width="22.68" height="21" rx="10.5" fill="white"/>
<rect x="3" y="9.52002" width="22.68" height="21" rx="10.5" stroke="white" stroke-width="5.04" stroke-linecap="round" stroke-linejoin="round" stroke-dasharray="5.04 5.04"/>
<path d="M14.4598 26.052C13.9372 26.052 13.5318 25.892 13.2438 25.572C12.9558 25.252 12.8118 24.8574 12.8118 24.388V18.66H12.4918C12.4172 18.9054 12.2572 19.124 12.0118 19.316C11.7665 19.508 11.4572 19.604 11.0838 19.604C10.6785 19.604 10.3212 19.4707 10.0118 19.204C9.71318 18.9267 9.56384 18.5427 9.56384 18.052C9.56384 17.6787 9.64918 17.364 9.81984 17.108C9.99051 16.852 10.2092 16.6014 10.4758 16.356L11.6438 15.316C12.0492 14.9534 12.4278 14.692 12.7798 14.532C13.1318 14.3614 13.5372 14.276 13.9958 14.276C14.3692 14.276 14.7158 14.356 15.0358 14.516C15.3558 14.676 15.6118 14.9267 15.8038 15.268C16.0065 15.5987 16.1078 16.036 16.1078 16.58V24.388C16.1078 24.8574 15.9692 25.252 15.6918 25.572C15.4145 25.892 15.0038 26.052 14.4598 26.052Z" fill="#E11B54" fill-opacity="0.86"/>
<rect x="40" y="9.52002" width="22.68" height="21" rx="10.5" fill="white"/>
<rect x="40" y="9.52002" width="22.68" height="21" rx="10.5" stroke="white" stroke-width="5.04" stroke-linecap="round" stroke-linejoin="round" stroke-dasharray="5.04 5.04"/>
<path d="M49.4598 26.02C48.9798 26.02 48.5318 25.9667 48.1158 25.86C47.7105 25.7534 47.3798 25.5507 47.1238 25.252C46.8678 24.9534 46.7398 24.5107 46.7398 23.924C46.7398 23.4334 46.8518 23.0227 47.0758 22.692C47.2998 22.3614 47.5772 22.0787 47.9078 21.844C48.2385 21.6094 48.5585 21.396 48.8678 21.204L51.3478 19.652C51.7532 19.396 52.0198 19.1827 52.1478 19.012C52.2758 18.8414 52.3398 18.6547 52.3398 18.452C52.3398 18.2707 52.2812 18.116 52.1638 17.988C52.0572 17.86 51.8012 17.796 51.3958 17.796C51.0012 17.796 50.5852 17.8387 50.1478 17.924C49.7105 18.0094 49.2892 18.052 48.8838 18.052C48.2972 18.052 47.8172 17.9134 47.4438 17.636C47.0812 17.348 46.8998 16.9267 46.8998 16.372C46.8998 15.8387 47.0918 15.4227 47.4758 15.124C47.8598 14.8147 48.3772 14.596 49.0278 14.468C49.6892 14.34 50.4252 14.276 51.2358 14.276C52.5478 14.276 53.5612 14.5214 54.2758 15.012C55.0012 15.5027 55.3638 16.2654 55.3638 17.3C55.3638 18.0147 55.1558 18.6227 54.7398 19.124C54.3345 19.6254 53.7692 20.116 53.0438 20.596L50.0838 22.548H53.7478C54.3452 22.548 54.8145 22.6974 55.1558 22.996C55.5078 23.284 55.6838 23.716 55.6838 24.292C55.6838 24.868 55.5078 25.3 55.1558 25.588C54.8145 25.876 54.3452 26.02 53.7478 26.02H49.4598Z" fill="#E11B54" fill-opacity="0.86"/>
<rect x="78" y="9.52002" width="22.68" height="21" rx="10.5" fill="white"/>
<rect x="78" y="9.52002" width="22.68" height="21" rx="10.5" stroke="white" stroke-width="5.04" stroke-linecap="round" stroke-linejoin="round" stroke-dasharray="5.04 5.04"/>
<rect x="322" y="9.52002" width="22.68" height="21" rx="10.5" fill="white"/>
<rect x="322" y="9.52002" width="22.68" height="21" rx="10.5" stroke="white" stroke-width="5.04" stroke-linecap="round" stroke-linejoin="round" stroke-dasharray="5.04 5.04"/>
<path d="M89.0918 25.504C88.3238 25.4934 87.6092 25.4294 86.9478 25.312C86.2972 25.1947 85.7692 24.9814 85.3638 24.672C84.9692 24.3627 84.7718 23.9307 84.7718 23.376C84.7718 22.8107 84.9212 22.3787 85.2198 22.08C85.5292 21.7707 85.9132 21.616 86.3718 21.616C86.9478 21.616 87.4545 21.6534 87.8918 21.728C88.3398 21.8027 88.8252 21.84 89.3478 21.84C89.7958 21.84 90.0945 21.7707 90.2438 21.632C90.4038 21.4934 90.4838 21.3014 90.4838 21.056C90.4838 20.5334 90.0625 20.272 89.2198 20.272H88.3078C87.9452 20.272 87.6838 20.1867 87.5238 20.016C87.3638 19.8347 87.2838 19.6214 87.2838 19.376C87.2838 19.12 87.3638 18.9067 87.5238 18.736C87.6838 18.5654 87.9452 18.48 88.3078 18.48H89.2198C89.6145 18.48 89.8758 18.4054 90.0038 18.256C90.1318 18.096 90.1958 17.8987 90.1958 17.664C90.1958 17.472 90.1265 17.3227 89.9878 17.216C89.8492 17.1094 89.6038 17.056 89.2518 17.056C88.8252 17.056 88.3932 17.1094 87.9558 17.216C87.5185 17.3227 87.0652 17.376 86.5958 17.376C86.0945 17.376 85.6678 17.2694 85.3158 17.056C84.9745 16.832 84.8038 16.4107 84.8038 15.792C84.8038 15.3654 84.9265 15.024 85.1718 14.768C85.4278 14.5014 85.7692 14.2987 86.1958 14.16C86.6225 14.0107 87.0918 13.9094 87.6038 13.856C88.1265 13.8027 88.6598 13.776 89.2038 13.776C89.9718 13.776 90.6705 13.872 91.2998 14.064C91.9292 14.2454 92.4305 14.544 92.8038 14.96C93.1878 15.376 93.3798 15.9414 93.3798 16.656C93.3798 17.4347 93.1292 18.064 92.6278 18.544C92.1372 19.0134 91.4865 19.248 90.6758 19.248V19.6C91.2198 19.6 91.7052 19.6907 92.1318 19.872C92.5692 20.0427 92.9158 20.32 93.1718 20.704C93.4278 21.088 93.5558 21.6 93.5558 22.24C93.5558 22.9654 93.3532 23.5734 92.9478 24.064C92.5425 24.544 92.0038 24.9067 91.3318 25.152C90.6598 25.3867 89.9132 25.504 89.0918 25.504Z" fill="#E11B54" fill-opacity="0.86"/>
<path d="M333.925 15.1949C334.363 15.0449 334.687 14.6324 334.737 14.1699C334.769 13.8762 334.706 13.6012 334.562 13.3762L333.763 11.9887C333.734 11.9415 333.695 11.9025 333.647 11.8754C333.599 11.8482 333.545 11.834 333.491 11.834C333.436 11.834 333.382 11.8482 333.334 11.8754C333.287 11.9025 333.247 11.9415 333.219 11.9887L332.419 13.3762C332.313 13.5637 332.25 13.7824 332.25 14.0199C332.25 14.8449 333.063 15.4887 333.925 15.1949ZM336.331 21.4699L335.706 20.8449L335.031 21.5137C334.219 22.3262 332.794 22.3324 331.975 21.5137L331.306 20.8449L330.625 21.5137C330.219 21.9199 329.675 22.1449 329.1 22.1449C328.644 22.1449 328.225 22.0012 327.875 21.7637V24.0199C327.875 24.7074 328.437 25.2699 329.125 25.2699H337.875C338.563 25.2699 339.125 24.7074 339.125 24.0199V21.7637C338.656 22.0824 338.056 22.2324 337.413 22.0887C337 22.0012 336.631 21.7699 336.331 21.4699ZM337.25 17.1449H334.125V16.5199C334.125 16.1762 333.844 15.8949 333.5 15.8949C333.156 15.8949 332.875 16.1762 332.875 16.5199V17.1449H329.75C328.713 17.1449 327.875 17.9824 327.875 19.0199V19.9324C327.875 20.4637 328.187 20.9762 328.694 21.1449C329.15 21.2949 329.644 21.1824 329.963 20.8574L331.3 19.5262L332.631 20.8574C333.106 21.3324 333.888 21.3324 334.363 20.8574L335.7 19.5262L337.031 20.8574C337.3 21.1262 337.675 21.2512 338.062 21.2012C338.681 21.1199 339.119 20.5387 339.119 19.9137V19.0262C339.121 18.7796 339.074 18.535 338.981 18.3065C338.888 18.0781 338.751 17.8704 338.577 17.6954C338.403 17.5204 338.197 17.3817 337.969 17.2872C337.741 17.1927 337.497 17.1443 337.25 17.1449Z" fill="#E53B6C"/>
</svg>
