<svg width="348" height="41" viewBox="0 0 348 41" fill="none" xmlns="http://www.w3.org/2000/svg">
<mask id="mask0_1035_3213" style="mask-type:alpha" maskUnits="userSpaceOnUse" x="3" y="16" width="335" height="7">
<rect x="3" y="16.52" width="334.268" height="6" fill="white"/>
</mask>
<g mask="url(#mask0_1035_3213)">
<rect width="7.4329" height="8.42703" transform="matrix(0.994265 0.106943 -0.430171 0.902747 4.05371 15.3201)" fill="white"/>
<rect width="7.4329" height="8.42703" transform="matrix(0.994265 0.106943 -0.430171 0.902747 11.6309 15.3201)" fill="#00BCB1"/>
<rect width="7.4329" height="8.42703" transform="matrix(0.994265 0.106943 -0.430171 0.902747 19.209 15.3201)" fill="white"/>
<rect width="7.4329" height="8.42703" transform="matrix(0.994265 0.106943 -0.430171 0.902747 26.7861 15.3201)" fill="#00BCB1"/>
<rect width="7.4329" height="8.42703" transform="matrix(0.994265 0.106943 -0.430171 0.902748 34.3623 15.3201)" fill="white"/>
<rect width="7.4329" height="8.42703" transform="matrix(0.994265 0.106943 -0.430171 0.902748 41.9395 15.3201)" fill="#00BCB1"/>
<rect width="7.4329" height="8.42703" transform="matrix(0.994265 0.106943 -0.430171 0.902748 49.5176 15.3201)" fill="white"/>
<rect width="7.43291" height="8.42703" transform="matrix(0.994265 0.106943 -0.430171 0.902747 57.0947 15.3201)" fill="#00BCB1"/>
<rect width="7.43291" height="8.42703" transform="matrix(0.994265 0.106943 -0.430171 0.902747 64.6719 15.3201)" fill="white"/>
<rect width="7.4329" height="8.42703" transform="matrix(0.994265 0.106943 -0.430171 0.902748 72.249 15.3201)" fill="#00BCB1"/>
<rect width="7.43291" height="8.42703" transform="matrix(0.994265 0.106943 -0.430171 0.902747 79.8262 15.3201)" fill="white"/>
<rect width="7.43291" height="8.42703" transform="matrix(0.994265 0.106943 -0.430171 0.902747 87.4043 15.3201)" fill="#00BCB1"/>
<rect width="7.4329" height="8.42703" transform="matrix(0.994265 0.106943 -0.430171 0.902748 94.9814 15.3201)" fill="white"/>
<rect width="7.43291" height="8.42703" transform="matrix(0.994265 0.106943 -0.430171 0.902747 102.559 15.3201)" fill="#00BCB1"/>
<rect width="7.43291" height="8.42703" transform="matrix(0.994265 0.106943 -0.430171 0.902747 110.136 15.3201)" fill="white"/>
<rect width="7.43291" height="8.42703" transform="matrix(0.994265 0.106943 -0.430171 0.902747 117.713 15.3201)" fill="#00BCB1"/>
<rect width="7.4329" height="8.42703" transform="matrix(0.994265 0.106943 -0.430171 0.902748 125.29 15.3201)" fill="white"/>
<rect width="7.43291" height="8.42703" transform="matrix(0.994265 0.106943 -0.430171 0.902747 132.867 15.3201)" fill="#00BCB1"/>
<rect width="7.4329" height="8.42703" transform="matrix(0.994265 0.106943 -0.430171 0.902748 140.444 15.3201)" fill="white"/>
<rect width="7.4329" height="8.42703" transform="matrix(0.994265 0.106943 -0.430171 0.902748 148.021 15.3201)" fill="#00BCB1"/>
<rect width="7.4329" height="8.42703" transform="matrix(0.994265 0.106943 -0.430171 0.902748 155.6 15.3201)" fill="white"/>
<rect width="7.4329" height="8.42703" transform="matrix(0.994265 0.106943 -0.430171 0.902748 163.177 15.3201)" fill="#00BCB1"/>
<rect width="7.43291" height="8.42703" transform="matrix(0.994265 0.106943 -0.430171 0.902747 170.754 15.3201)" fill="white"/>
<rect width="7.4329" height="8.42703" transform="matrix(0.994265 0.106943 -0.430171 0.902748 178.332 15.3201)" fill="#00BCB1"/>
<rect width="7.43291" height="8.42703" transform="matrix(0.994265 0.106943 -0.430171 0.902747 185.909 15.3201)" fill="white"/>
<rect width="7.43291" height="8.42703" transform="matrix(0.994265 0.106943 -0.430171 0.902747 193.486 15.3201)" fill="#00BCB1"/>
<rect width="7.4329" height="8.42703" transform="matrix(0.994265 0.106943 -0.430171 0.902748 201.063 15.3201)" fill="white"/>
<rect width="7.4329" height="8.42703" transform="matrix(0.994265 0.106943 -0.430171 0.902748 208.641 15.3201)" fill="#00BCB1"/>
<rect width="7.4329" height="8.42703" transform="matrix(0.994265 0.106943 -0.430171 0.902748 216.219 15.3201)" fill="white"/>
<rect width="7.4329" height="8.42703" transform="matrix(0.994265 0.106943 -0.430171 0.902748 223.796 15.3201)" fill="#00BCB1"/>
<rect width="7.43291" height="8.42703" transform="matrix(0.994265 0.106943 -0.430171 0.902747 231.373 15.3201)" fill="white"/>
<rect width="7.43291" height="8.42703" transform="matrix(0.994265 0.106943 -0.430171 0.902747 238.95 15.3201)" fill="#00BCB1"/>
<rect width="7.4329" height="8.42703" transform="matrix(0.994265 0.106943 -0.430171 0.902748 246.527 15.3201)" fill="white"/>
<rect width="7.4329" height="8.42703" transform="matrix(0.994265 0.106943 -0.430171 0.902748 254.104 15.3201)" fill="#00BCB1"/>
<rect width="7.43289" height="8.42703" transform="matrix(0.994265 0.106943 -0.43017 0.902748 261.683 15.3201)" fill="white"/>
<rect width="7.43291" height="8.42703" transform="matrix(0.994265 0.106943 -0.430171 0.902747 269.26 15.3201)" fill="#00BCB1"/>
<rect width="7.43289" height="8.42703" transform="matrix(0.994265 0.106943 -0.43017 0.902748 276.837 15.3201)" fill="white"/>
<rect width="7.43291" height="8.42703" transform="matrix(0.994265 0.106943 -0.430171 0.902747 284.414 15.3201)" fill="#00BCB1"/>
<rect width="7.43289" height="8.42703" transform="matrix(0.994265 0.106943 -0.43017 0.902748 291.992 15.3201)" fill="white"/>
<rect width="7.43291" height="8.42703" transform="matrix(0.994265 0.106943 -0.430171 0.902747 299.569 15.3201)" fill="#00BCB1"/>
<rect width="7.43291" height="8.42703" transform="matrix(0.994265 0.106943 -0.430171 0.902747 307.146 15.3201)" fill="white"/>
<rect width="7.43291" height="8.42703" transform="matrix(0.994265 0.106943 -0.430171 0.902747 314.723 15.3201)" fill="#00BCB1"/>
<rect width="7.43289" height="8.42703" transform="matrix(0.994265 0.106943 -0.43017 0.902748 322.3 15.3201)" fill="white"/>
<rect width="7.43291" height="8.42703" transform="matrix(0.994265 0.106943 -0.430171 0.902747 329.877 15.3201)" fill="#00BCB1"/>
</g>
<rect x="77" y="2.52002" width="37" height="35" rx="17.5" fill="white"/>
<rect x="77" y="2.52002" width="37" height="35" rx="17.5" stroke="white" stroke-width="5.04" stroke-linecap="round" stroke-linejoin="round" stroke-dasharray="5.04 5.04"/>
<path d="M95.128 28.996C93.976 28.98 92.904 28.884 91.912 28.708C90.936 28.532 90.144 28.212 89.536 27.748C88.944 27.284 88.648 26.636 88.648 25.804C88.648 24.956 88.872 24.308 89.32 23.86C89.784 23.396 90.36 23.164 91.048 23.164C91.912 23.164 92.672 23.22 93.328 23.332C94 23.444 94.728 23.5 95.512 23.5C96.184 23.5 96.632 23.396 96.856 23.188C97.096 22.98 97.216 22.692 97.216 22.324C97.216 21.54 96.584 21.148 95.32 21.148H93.952C93.408 21.148 93.016 21.02 92.776 20.764C92.536 20.492 92.416 20.172 92.416 19.804C92.416 19.42 92.536 19.1 92.776 18.844C93.016 18.588 93.408 18.46 93.952 18.46H95.32C95.912 18.46 96.304 18.348 96.496 18.124C96.688 17.884 96.784 17.588 96.784 17.236C96.784 16.948 96.68 16.724 96.472 16.564C96.264 16.404 95.896 16.324 95.368 16.324C94.728 16.324 94.08 16.404 93.424 16.564C92.768 16.724 92.088 16.804 91.384 16.804C90.632 16.804 89.992 16.644 89.464 16.324C88.952 15.988 88.696 15.356 88.696 14.428C88.696 13.788 88.88 13.276 89.248 12.892C89.632 12.492 90.144 12.188 90.784 11.98C91.424 11.756 92.128 11.604 92.896 11.524C93.68 11.444 94.48 11.404 95.296 11.404C96.448 11.404 97.496 11.548 98.44 11.836C99.384 12.108 100.136 12.556 100.696 13.18C101.272 13.804 101.56 14.652 101.56 15.724C101.56 16.892 101.184 17.836 100.432 18.556C99.696 19.26 98.72 19.612 97.504 19.612V20.14C98.32 20.14 99.048 20.276 99.688 20.548C100.344 20.804 100.864 21.22 101.248 21.796C101.632 22.372 101.824 23.14 101.824 24.1C101.824 25.188 101.52 26.1 100.912 26.836C100.304 27.556 99.496 28.1 98.488 28.468C97.48 28.82 96.36 28.996 95.128 28.996Z" fill="#E11B54" fill-opacity="0.86"/>
<rect x="3" y="9.52002" width="22.68" height="21" rx="10.5" fill="white"/>
<rect x="3" y="9.52002" width="22.68" height="21" rx="10.5" stroke="white" stroke-width="5.04" stroke-linecap="round" stroke-linejoin="round" stroke-dasharray="5.04 5.04"/>
<path d="M14.4598 26.052C13.9372 26.052 13.5318 25.892 13.2438 25.572C12.9558 25.252 12.8118 24.8574 12.8118 24.388V18.66H12.4918C12.4172 18.9054 12.2572 19.124 12.0118 19.316C11.7665 19.508 11.4572 19.604 11.0838 19.604C10.6785 19.604 10.3212 19.4707 10.0118 19.204C9.71318 18.9267 9.56384 18.5427 9.56384 18.052C9.56384 17.6787 9.64918 17.364 9.81984 17.108C9.99051 16.852 10.2092 16.6014 10.4758 16.356L11.6438 15.316C12.0492 14.9534 12.4278 14.692 12.7798 14.532C13.1318 14.3614 13.5372 14.276 13.9958 14.276C14.3692 14.276 14.7158 14.356 15.0358 14.516C15.3558 14.676 15.6118 14.9267 15.8038 15.268C16.0065 15.5987 16.1078 16.036 16.1078 16.58V24.388C16.1078 24.8574 15.9692 25.252 15.6918 25.572C15.4145 25.892 15.0038 26.052 14.4598 26.052Z" fill="#E11B54" fill-opacity="0.86"/>
<rect x="40" y="9.52002" width="22.68" height="21" rx="10.5" fill="white"/>
<rect x="40" y="9.52002" width="22.68" height="21" rx="10.5" stroke="white" stroke-width="5.04" stroke-linecap="round" stroke-linejoin="round" stroke-dasharray="5.04 5.04"/>
<path d="M49.4598 26.02C48.9798 26.02 48.5318 25.9667 48.1158 25.86C47.7105 25.7534 47.3798 25.5507 47.1238 25.252C46.8678 24.9534 46.7398 24.5107 46.7398 23.924C46.7398 23.4334 46.8518 23.0227 47.0758 22.692C47.2998 22.3614 47.5772 22.0787 47.9078 21.844C48.2385 21.6094 48.5585 21.396 48.8678 21.204L51.3478 19.652C51.7532 19.396 52.0198 19.1827 52.1478 19.012C52.2758 18.8414 52.3398 18.6547 52.3398 18.452C52.3398 18.2707 52.2812 18.116 52.1638 17.988C52.0572 17.86 51.8012 17.796 51.3958 17.796C51.0012 17.796 50.5852 17.8387 50.1478 17.924C49.7105 18.0094 49.2892 18.052 48.8838 18.052C48.2972 18.052 47.8172 17.9134 47.4438 17.636C47.0812 17.348 46.8998 16.9267 46.8998 16.372C46.8998 15.8387 47.0918 15.4227 47.4758 15.124C47.8598 14.8147 48.3772 14.596 49.0278 14.468C49.6892 14.34 50.4252 14.276 51.2358 14.276C52.5478 14.276 53.5612 14.5214 54.2758 15.012C55.0012 15.5027 55.3638 16.2654 55.3638 17.3C55.3638 18.0147 55.1558 18.6227 54.7398 19.124C54.3345 19.6254 53.7692 20.116 53.0438 20.596L50.0838 22.548H53.7478C54.3452 22.548 54.8145 22.6974 55.1558 22.996C55.5078 23.284 55.6838 23.716 55.6838 24.292C55.6838 24.868 55.5078 25.3 55.1558 25.588C54.8145 25.876 54.3452 26.02 53.7478 26.02H49.4598Z" fill="#E11B54" fill-opacity="0.86"/>
<rect x="322" y="9.52002" width="22.68" height="21" rx="10.5" fill="white"/>
<rect x="322" y="9.52002" width="22.68" height="21" rx="10.5" stroke="white" stroke-width="5.04" stroke-linecap="round" stroke-linejoin="round" stroke-dasharray="5.04 5.04"/>
<path d="M334.62 25.52C334.087 25.52 333.681 25.3707 333.404 25.072C333.127 24.7627 332.988 24.3787 332.988 23.92V22.224H332.748C332.695 22.4587 332.577 22.6987 332.396 22.944C332.215 23.1894 331.953 23.392 331.612 23.552C331.271 23.712 330.833 23.792 330.3 23.792C329.873 23.792 329.463 23.712 329.068 23.552C328.684 23.3814 328.369 23.1307 328.124 22.8C327.889 22.4587 327.772 22.0374 327.772 21.536C327.772 21.1414 327.852 20.7627 328.012 20.4C328.183 20.0267 328.449 19.568 328.812 19.024L330.86 15.952C331.351 15.2267 331.836 14.6827 332.316 14.32C332.807 13.9574 333.351 13.776 333.948 13.776C334.364 13.776 334.743 13.8507 335.084 14C335.436 14.1387 335.719 14.384 335.932 14.736C336.145 15.088 336.252 15.568 336.252 16.176V20.288C336.252 20.288 336.311 20.2827 336.428 20.272C336.545 20.2507 336.673 20.24 336.812 20.24C337.175 20.24 337.495 20.3467 337.772 20.56C338.049 20.7627 338.188 21.1307 338.188 21.664C338.188 22.1867 338.049 22.5547 337.772 22.768C337.495 22.9814 337.175 23.088 336.812 23.088C336.673 23.088 336.545 23.0774 336.428 23.056C336.311 23.0347 336.252 23.024 336.252 23.024V23.92C336.252 24.3787 336.113 24.7627 335.836 25.072C335.569 25.3707 335.164 25.52 334.62 25.52ZM330.956 20.048C330.881 20.1547 330.871 20.2454 330.924 20.32C330.977 20.3947 331.057 20.432 331.164 20.432H332.988V17.232H332.812L330.956 20.048Z" fill="#E11B54" fill-opacity="0.86"/>
</svg>
