<svg width="348" height="41" viewBox="0 0 348 41" fill="none" xmlns="http://www.w3.org/2000/svg">
<mask id="mask0_1035_3130" style="mask-type:alpha" maskUnits="userSpaceOnUse" x="3" y="16" width="335" height="7">
<rect x="3" y="16.52" width="334.268" height="6" fill="white"/>
</mask>
<g mask="url(#mask0_1035_3130)">
<rect width="7.4329" height="8.42703" transform="matrix(0.994265 0.106943 -0.430171 0.902747 4.05371 15.3201)" fill="white"/>
<rect width="7.4329" height="8.42703" transform="matrix(0.994265 0.106943 -0.430171 0.902747 11.6309 15.3201)" fill="#00BCB1"/>
<rect width="7.4329" height="8.42703" transform="matrix(0.994265 0.106943 -0.430171 0.902747 19.209 15.3201)" fill="white"/>
<rect width="7.4329" height="8.42703" transform="matrix(0.994265 0.106943 -0.430171 0.902747 26.7861 15.3201)" fill="#00BCB1"/>
<rect width="7.4329" height="8.42703" transform="matrix(0.994265 0.106943 -0.430171 0.902748 34.3623 15.3201)" fill="white"/>
<rect width="7.4329" height="8.42703" transform="matrix(0.994265 0.106943 -0.430171 0.902748 41.9395 15.3201)" fill="#00BCB1"/>
<rect width="7.4329" height="8.42703" transform="matrix(0.994265 0.106943 -0.430171 0.902748 49.5176 15.3201)" fill="white"/>
<rect width="7.43291" height="8.42703" transform="matrix(0.994265 0.106943 -0.430171 0.902747 57.0947 15.3201)" fill="#00BCB1"/>
<rect width="7.43291" height="8.42703" transform="matrix(0.994265 0.106943 -0.430171 0.902747 64.6719 15.3201)" fill="white"/>
<rect width="7.4329" height="8.42703" transform="matrix(0.994265 0.106943 -0.430171 0.902748 72.249 15.3201)" fill="#00BCB1"/>
<rect width="7.43291" height="8.42703" transform="matrix(0.994265 0.106943 -0.430171 0.902747 79.8262 15.3201)" fill="white"/>
<rect width="7.43291" height="8.42703" transform="matrix(0.994265 0.106943 -0.430171 0.902747 87.4043 15.3201)" fill="#00BCB1"/>
<rect width="7.4329" height="8.42703" transform="matrix(0.994265 0.106943 -0.430171 0.902748 94.9814 15.3201)" fill="white"/>
<rect width="7.43291" height="8.42703" transform="matrix(0.994265 0.106943 -0.430171 0.902747 102.559 15.3201)" fill="#00BCB1"/>
<rect width="7.43291" height="8.42703" transform="matrix(0.994265 0.106943 -0.430171 0.902747 110.136 15.3201)" fill="white"/>
<rect width="7.43291" height="8.42703" transform="matrix(0.994265 0.106943 -0.430171 0.902747 117.713 15.3201)" fill="#00BCB1"/>
<rect width="7.4329" height="8.42703" transform="matrix(0.994265 0.106943 -0.430171 0.902748 125.29 15.3201)" fill="white"/>
<rect width="7.43291" height="8.42703" transform="matrix(0.994265 0.106943 -0.430171 0.902747 132.867 15.3201)" fill="#00BCB1"/>
<rect width="7.4329" height="8.42703" transform="matrix(0.994265 0.106943 -0.430171 0.902748 140.444 15.3201)" fill="white"/>
<rect width="7.4329" height="8.42703" transform="matrix(0.994265 0.106943 -0.430171 0.902748 148.021 15.3201)" fill="#00BCB1"/>
<rect width="7.4329" height="8.42703" transform="matrix(0.994265 0.106943 -0.430171 0.902748 155.6 15.3201)" fill="white"/>
<rect width="7.4329" height="8.42703" transform="matrix(0.994265 0.106943 -0.430171 0.902748 163.177 15.3201)" fill="#00BCB1"/>
<rect width="7.43291" height="8.42703" transform="matrix(0.994265 0.106943 -0.430171 0.902747 170.754 15.3201)" fill="white"/>
<rect width="7.4329" height="8.42703" transform="matrix(0.994265 0.106943 -0.430171 0.902748 178.332 15.3201)" fill="#00BCB1"/>
<rect width="7.43291" height="8.42703" transform="matrix(0.994265 0.106943 -0.430171 0.902747 185.909 15.3201)" fill="white"/>
<rect width="7.43291" height="8.42703" transform="matrix(0.994265 0.106943 -0.430171 0.902747 193.486 15.3201)" fill="#00BCB1"/>
<rect width="7.4329" height="8.42703" transform="matrix(0.994265 0.106943 -0.430171 0.902748 201.063 15.3201)" fill="white"/>
<rect width="7.4329" height="8.42703" transform="matrix(0.994265 0.106943 -0.430171 0.902748 208.641 15.3201)" fill="#00BCB1"/>
<rect width="7.4329" height="8.42703" transform="matrix(0.994265 0.106943 -0.430171 0.902748 216.219 15.3201)" fill="white"/>
<rect width="7.4329" height="8.42703" transform="matrix(0.994265 0.106943 -0.430171 0.902748 223.796 15.3201)" fill="#00BCB1"/>
<rect width="7.43291" height="8.42703" transform="matrix(0.994265 0.106943 -0.430171 0.902747 231.373 15.3201)" fill="white"/>
<rect width="7.43291" height="8.42703" transform="matrix(0.994265 0.106943 -0.430171 0.902747 238.95 15.3201)" fill="#00BCB1"/>
<rect width="7.4329" height="8.42703" transform="matrix(0.994265 0.106943 -0.430171 0.902748 246.527 15.3201)" fill="white"/>
<rect width="7.4329" height="8.42703" transform="matrix(0.994265 0.106943 -0.430171 0.902748 254.104 15.3201)" fill="#00BCB1"/>
<rect width="7.43289" height="8.42703" transform="matrix(0.994265 0.106943 -0.43017 0.902748 261.682 15.3201)" fill="white"/>
<rect width="7.43291" height="8.42703" transform="matrix(0.994265 0.106943 -0.430171 0.902747 269.26 15.3201)" fill="#00BCB1"/>
<rect width="7.43289" height="8.42703" transform="matrix(0.994265 0.106943 -0.43017 0.902748 276.837 15.3201)" fill="white"/>
<rect width="7.43291" height="8.42703" transform="matrix(0.994265 0.106943 -0.430171 0.902747 284.414 15.3201)" fill="#00BCB1"/>
<rect width="7.43289" height="8.42703" transform="matrix(0.994265 0.106943 -0.43017 0.902748 291.991 15.3201)" fill="white"/>
<rect width="7.43291" height="8.42703" transform="matrix(0.994265 0.106943 -0.430171 0.902747 299.568 15.3201)" fill="#00BCB1"/>
<rect width="7.43291" height="8.42703" transform="matrix(0.994265 0.106943 -0.430171 0.902747 307.146 15.3201)" fill="white"/>
<rect width="7.43291" height="8.42703" transform="matrix(0.994265 0.106943 -0.430171 0.902747 314.724 15.3201)" fill="#00BCB1"/>
<rect width="7.43289" height="8.42703" transform="matrix(0.994265 0.106943 -0.43017 0.902748 322.301 15.3201)" fill="white"/>
<rect width="7.43291" height="8.42703" transform="matrix(0.994265 0.106943 -0.430171 0.902747 329.878 15.3201)" fill="#00BCB1"/>
</g>
<rect x="36" y="2.52002" width="37" height="35" rx="17.5" fill="white"/>
<rect x="36" y="2.52002" width="37" height="35" rx="17.5" stroke="white" stroke-width="5.04" stroke-linecap="round" stroke-linejoin="round" stroke-dasharray="5.04 5.04"/>
<path d="M51.68 29.02C50.96 29.02 50.288 28.94 49.664 28.78C49.056 28.62 48.56 28.316 48.176 27.868C47.792 27.42 47.6 26.756 47.6 25.876C47.6 25.14 47.768 24.524 48.104 24.028C48.44 23.532 48.856 23.108 49.352 22.756C49.848 22.404 50.328 22.084 50.792 21.796L54.512 19.468C55.12 19.084 55.52 18.764 55.712 18.508C55.904 18.252 56 17.972 56 17.668C56 17.396 55.912 17.164 55.736 16.972C55.576 16.78 55.192 16.684 54.584 16.684C53.992 16.684 53.368 16.748 52.712 16.876C52.056 17.004 51.424 17.068 50.816 17.068C49.936 17.068 49.216 16.86 48.656 16.444C48.112 16.012 47.84 15.38 47.84 14.548C47.84 13.748 48.128 13.124 48.704 12.676C49.28 12.212 50.056 11.884 51.032 11.692C52.024 11.5 53.128 11.404 54.344 11.404C56.312 11.404 57.832 11.772 58.904 12.508C59.992 13.244 60.536 14.388 60.536 15.94C60.536 17.012 60.224 17.924 59.6 18.676C58.992 19.428 58.144 20.164 57.056 20.884L52.616 23.812H58.112C59.008 23.812 59.712 24.036 60.224 24.484C60.752 24.916 61.016 25.564 61.016 26.428C61.016 27.292 60.752 27.94 60.224 28.372C59.712 28.804 59.008 29.02 58.112 29.02H51.68Z" fill="#E11B54" fill-opacity="0.86"/>
<rect x="3" y="9.52002" width="22.68" height="21" rx="10.5" fill="white"/>
<rect x="3" y="9.52002" width="22.68" height="21" rx="10.5" stroke="white" stroke-width="5.04" stroke-linecap="round" stroke-linejoin="round" stroke-dasharray="5.04 5.04"/>
<path d="M14.4598 26.052C13.9372 26.052 13.5318 25.892 13.2438 25.572C12.9558 25.252 12.8118 24.8574 12.8118 24.388V18.66H12.4918C12.4172 18.9054 12.2572 19.124 12.0118 19.316C11.7665 19.508 11.4572 19.604 11.0838 19.604C10.6785 19.604 10.3212 19.4707 10.0118 19.204C9.71318 18.9267 9.56384 18.5427 9.56384 18.052C9.56384 17.6787 9.64918 17.364 9.81984 17.108C9.99051 16.852 10.2092 16.6014 10.4758 16.356L11.6438 15.316C12.0492 14.9534 12.4278 14.692 12.7798 14.532C13.1318 14.3614 13.5372 14.276 13.9958 14.276C14.3692 14.276 14.7158 14.356 15.0358 14.516C15.3558 14.676 15.6118 14.9267 15.8038 15.268C16.0065 15.5987 16.1078 16.036 16.1078 16.58V24.388C16.1078 24.8574 15.9692 25.252 15.6918 25.572C15.4145 25.892 15.0038 26.052 14.4598 26.052Z" fill="#E11B54" fill-opacity="0.86"/>
<rect x="290" y="9.52002" width="22.68" height="21" rx="10.5" fill="white"/>
<rect x="290" y="9.52002" width="22.68" height="21" rx="10.5" stroke="white" stroke-width="5.04" stroke-linecap="round" stroke-linejoin="round" stroke-dasharray="5.04 5.04"/>
<path d="M301.092 26.004C300.324 25.9934 299.609 25.9294 298.948 25.812C298.297 25.6947 297.769 25.4814 297.364 25.172C296.969 24.8627 296.772 24.4307 296.772 23.876C296.772 23.3107 296.921 22.8787 297.22 22.58C297.529 22.2707 297.913 22.116 298.372 22.116C298.948 22.116 299.455 22.1534 299.892 22.228C300.34 22.3027 300.825 22.34 301.348 22.34C301.796 22.34 302.095 22.2707 302.244 22.132C302.404 21.9934 302.484 21.8014 302.484 21.556C302.484 21.0334 302.063 20.772 301.22 20.772H300.308C299.945 20.772 299.684 20.6867 299.524 20.516C299.364 20.3347 299.284 20.1214 299.284 19.876C299.284 19.62 299.364 19.4067 299.524 19.236C299.684 19.0654 299.945 18.98 300.308 18.98H301.22C301.615 18.98 301.876 18.9054 302.004 18.756C302.132 18.596 302.196 18.3987 302.196 18.164C302.196 17.972 302.127 17.8227 301.988 17.716C301.849 17.6094 301.604 17.556 301.252 17.556C300.825 17.556 300.393 17.6094 299.956 17.716C299.519 17.8227 299.065 17.876 298.596 17.876C298.095 17.876 297.668 17.7694 297.316 17.556C296.975 17.332 296.804 16.9107 296.804 16.292C296.804 15.8654 296.927 15.524 297.172 15.268C297.428 15.0014 297.769 14.7987 298.196 14.66C298.623 14.5107 299.092 14.4094 299.604 14.356C300.127 14.3027 300.66 14.276 301.204 14.276C301.972 14.276 302.671 14.372 303.3 14.564C303.929 14.7454 304.431 15.044 304.804 15.46C305.188 15.876 305.38 16.4414 305.38 17.156C305.38 17.9347 305.129 18.564 304.628 19.044C304.137 19.5134 303.487 19.748 302.676 19.748V20.1C303.22 20.1 303.705 20.1907 304.132 20.372C304.569 20.5427 304.916 20.82 305.172 21.204C305.428 21.588 305.556 22.1 305.556 22.74C305.556 23.4654 305.353 24.0734 304.948 24.564C304.543 25.044 304.004 25.4067 303.332 25.652C302.66 25.8867 301.913 26.004 301.092 26.004Z" fill="#E11B54" fill-opacity="0.86"/>
<rect x="322" y="9.52002" width="22.68" height="21" rx="10.5" fill="white"/>
<rect x="322" y="9.52002" width="22.68" height="21" rx="10.5" stroke="white" stroke-width="5.04" stroke-linecap="round" stroke-linejoin="round" stroke-dasharray="5.04 5.04"/>
<path d="M334.62 25.52C334.087 25.52 333.681 25.3707 333.404 25.072C333.127 24.7627 332.988 24.3787 332.988 23.92V22.224H332.748C332.695 22.4587 332.577 22.6987 332.396 22.944C332.215 23.1894 331.953 23.392 331.612 23.552C331.271 23.712 330.833 23.792 330.3 23.792C329.873 23.792 329.463 23.712 329.068 23.552C328.684 23.3814 328.369 23.1307 328.124 22.8C327.889 22.4587 327.772 22.0374 327.772 21.536C327.772 21.1414 327.852 20.7627 328.012 20.4C328.183 20.0267 328.449 19.568 328.812 19.024L330.86 15.952C331.351 15.2267 331.836 14.6827 332.316 14.32C332.807 13.9574 333.351 13.776 333.948 13.776C334.364 13.776 334.743 13.8507 335.084 14C335.436 14.1387 335.719 14.384 335.932 14.736C336.145 15.088 336.252 15.568 336.252 16.176V20.288C336.252 20.288 336.311 20.2827 336.428 20.272C336.545 20.2507 336.673 20.24 336.812 20.24C337.175 20.24 337.495 20.3467 337.772 20.56C338.049 20.7627 338.188 21.1307 338.188 21.664C338.188 22.1867 338.049 22.5547 337.772 22.768C337.495 22.9814 337.175 23.088 336.812 23.088C336.673 23.088 336.545 23.0774 336.428 23.056C336.311 23.0347 336.252 23.024 336.252 23.024V23.92C336.252 24.3787 336.113 24.7627 335.836 25.072C335.569 25.3707 335.164 25.52 334.62 25.52ZM330.956 20.048C330.881 20.1547 330.871 20.2454 330.924 20.32C330.977 20.3947 331.057 20.432 331.164 20.432H332.988V17.232H332.812L330.956 20.048Z" fill="#E11B54" fill-opacity="0.86"/>
</svg>
