<svg width="348" height="41" viewBox="0 0 348 41" fill="none" xmlns="http://www.w3.org/2000/svg">
<mask id="mask0_1035_3804" style="mask-type:alpha" maskUnits="userSpaceOnUse" x="3" y="16" width="335" height="7">
<rect x="3" y="16.52" width="334.268" height="6" fill="white"/>
</mask>
<g mask="url(#mask0_1035_3804)">
<rect width="7.4329" height="8.42703" transform="matrix(0.994265 0.106943 -0.430171 0.902747 4.05371 15.3201)" fill="white"/>
<rect width="7.4329" height="8.42703" transform="matrix(0.994265 0.106943 -0.430171 0.902747 11.6313 15.3201)" fill="#00BCB1"/>
<rect width="7.4329" height="8.42703" transform="matrix(0.994265 0.106943 -0.430171 0.902747 19.2085 15.3201)" fill="white"/>
<rect width="7.4329" height="8.42703" transform="matrix(0.994265 0.106943 -0.430171 0.902747 26.7852 15.3201)" fill="#00BCB1"/>
<rect width="7.4329" height="8.42703" transform="matrix(0.994265 0.106943 -0.430171 0.902748 34.3628 15.3201)" fill="white"/>
<rect width="7.4329" height="8.42703" transform="matrix(0.994265 0.106943 -0.430171 0.902748 41.9404 15.3201)" fill="#00BCB1"/>
<rect width="7.4329" height="8.42703" transform="matrix(0.994265 0.106943 -0.430171 0.902748 49.5176 15.3201)" fill="white"/>
<rect width="7.43291" height="8.42703" transform="matrix(0.994265 0.106943 -0.430171 0.902747 57.0947 15.3201)" fill="#00BCB1"/>
<rect width="7.43291" height="8.42703" transform="matrix(0.994265 0.106943 -0.430171 0.902747 64.6724 15.3201)" fill="white"/>
<rect width="7.4329" height="8.42703" transform="matrix(0.994265 0.106943 -0.430171 0.902748 72.25 15.3201)" fill="#00BCB1"/>
<rect width="7.43291" height="8.42703" transform="matrix(0.994265 0.106943 -0.430171 0.902747 79.8271 15.3201)" fill="white"/>
<rect width="7.43291" height="8.42703" transform="matrix(0.994265 0.106943 -0.430171 0.902747 87.4043 15.3201)" fill="#00BCB1"/>
<rect width="7.4329" height="8.42703" transform="matrix(0.994265 0.106943 -0.430171 0.902748 94.9814 15.3201)" fill="white"/>
<rect width="7.43291" height="8.42703" transform="matrix(0.994265 0.106943 -0.430171 0.902747 102.559 15.3201)" fill="#00BCB1"/>
<rect width="7.43291" height="8.42703" transform="matrix(0.994265 0.106943 -0.430171 0.902747 110.136 15.3201)" fill="white"/>
<rect width="7.43291" height="8.42703" transform="matrix(0.994265 0.106943 -0.430171 0.902747 117.714 15.3201)" fill="#00BCB1"/>
<rect width="7.4329" height="8.42703" transform="matrix(0.994265 0.106943 -0.430171 0.902748 125.291 15.3201)" fill="white"/>
<rect width="7.43291" height="8.42703" transform="matrix(0.994265 0.106943 -0.430171 0.902747 132.868 15.3201)" fill="#00BCB1"/>
<rect width="7.4329" height="8.42703" transform="matrix(0.994265 0.106943 -0.430171 0.902748 140.444 15.3201)" fill="white"/>
<rect width="7.4329" height="8.42703" transform="matrix(0.994265 0.106943 -0.430171 0.902748 148.022 15.3201)" fill="#00BCB1"/>
<rect width="7.4329" height="8.42703" transform="matrix(0.994265 0.106943 -0.430171 0.902748 155.6 15.3201)" fill="white"/>
<rect width="7.4329" height="8.42703" transform="matrix(0.994265 0.106943 -0.430171 0.902748 163.177 15.3201)" fill="#00BCB1"/>
<rect width="7.43291" height="8.42703" transform="matrix(0.994265 0.106943 -0.430171 0.902747 170.754 15.3201)" fill="white"/>
<rect width="7.4329" height="8.42703" transform="matrix(0.994265 0.106943 -0.430171 0.902748 178.332 15.3201)" fill="#00BCB1"/>
<rect width="7.43291" height="8.42703" transform="matrix(0.994265 0.106943 -0.430171 0.902747 185.909 15.3201)" fill="white"/>
<rect width="7.43291" height="8.42703" transform="matrix(0.994265 0.106943 -0.430171 0.902747 193.486 15.3201)" fill="#00BCB1"/>
<rect width="7.4329" height="8.42703" transform="matrix(0.994265 0.106943 -0.430171 0.902748 201.063 15.3201)" fill="white"/>
<rect width="7.4329" height="8.42703" transform="matrix(0.994265 0.106943 -0.430171 0.902748 208.641 15.3201)" fill="#00BCB1"/>
<rect width="7.4329" height="8.42703" transform="matrix(0.994265 0.106943 -0.430171 0.902748 216.218 15.3201)" fill="white"/>
<rect width="7.4329" height="8.42703" transform="matrix(0.994265 0.106943 -0.430171 0.902748 223.795 15.3201)" fill="#00BCB1"/>
<rect width="7.43291" height="8.42703" transform="matrix(0.994265 0.106943 -0.430171 0.902747 231.373 15.3201)" fill="white"/>
<rect width="7.43291" height="8.42703" transform="matrix(0.994265 0.106943 -0.430171 0.902747 238.95 15.3201)" fill="#00BCB1"/>
<rect width="7.4329" height="8.42703" transform="matrix(0.994265 0.106943 -0.430171 0.902748 246.527 15.3201)" fill="white"/>
<rect width="7.4329" height="8.42703" transform="matrix(0.994265 0.106943 -0.430171 0.902748 254.105 15.3201)" fill="#00BCB1"/>
<rect width="7.43289" height="8.42703" transform="matrix(0.994265 0.106943 -0.43017 0.902748 261.683 15.3201)" fill="white"/>
<rect width="7.43291" height="8.42703" transform="matrix(0.994265 0.106943 -0.430171 0.902747 269.26 15.3201)" fill="#00BCB1"/>
<rect width="7.43289" height="8.42703" transform="matrix(0.994265 0.106943 -0.43017 0.902748 276.837 15.3201)" fill="white"/>
<rect width="7.43291" height="8.42703" transform="matrix(0.994265 0.106943 -0.430171 0.902747 284.414 15.3201)" fill="#00BCB1"/>
<rect width="7.43289" height="8.42703" transform="matrix(0.994265 0.106943 -0.43017 0.902748 291.992 15.3201)" fill="white"/>
<rect width="7.43291" height="8.42703" transform="matrix(0.994265 0.106943 -0.430171 0.902747 299.569 15.3201)" fill="#00BCB1"/>
<rect width="7.43291" height="8.42703" transform="matrix(0.994265 0.106943 -0.430171 0.902747 307.146 15.3201)" fill="white"/>
<rect width="7.43291" height="8.42703" transform="matrix(0.994265 0.106943 -0.430171 0.902747 314.723 15.3201)" fill="#00BCB1"/>
<rect width="7.43289" height="8.42703" transform="matrix(0.994265 0.106943 -0.43017 0.902748 322.3 15.3201)" fill="white"/>
<rect width="7.43291" height="8.42703" transform="matrix(0.994265 0.106943 -0.430171 0.902747 329.877 15.3201)" fill="#00BCB1"/>
</g>
<rect x="3" y="2.52002" width="37" height="35" rx="17.5" fill="white"/>
<rect x="3" y="2.52002" width="37" height="35" rx="17.5" stroke="white" stroke-width="5.04" stroke-linecap="round" stroke-linejoin="round" stroke-dasharray="5.04 5.04"/>
<path d="M21.68 29.068C20.896 29.068 20.288 28.828 19.856 28.348C19.424 27.868 19.208 27.276 19.208 26.572V17.98H18.728C18.616 18.348 18.376 18.676 18.008 18.964C17.64 19.252 17.176 19.396 16.616 19.396C16.008 19.396 15.472 19.196 15.008 18.796C14.56 18.38 14.336 17.804 14.336 17.068C14.336 16.508 14.464 16.036 14.72 15.652C14.976 15.268 15.304 14.892 15.704 14.524L17.456 12.964C18.064 12.42 18.632 12.028 19.16 11.788C19.688 11.532 20.296 11.404 20.984 11.404C21.544 11.404 22.064 11.524 22.544 11.764C23.024 12.004 23.408 12.38 23.696 12.892C24 13.388 24.152 14.044 24.152 14.86V26.572C24.152 27.276 23.944 27.868 23.528 28.348C23.112 28.828 22.496 29.068 21.68 29.068Z" fill="#E11B54" fill-opacity="0.86"/>
<rect x="290" y="9.52002" width="22.68" height="21" rx="10.5" fill="white"/>
<rect x="290" y="9.52002" width="22.68" height="21" rx="10.5" stroke="white" stroke-width="5.04" stroke-linecap="round" stroke-linejoin="round" stroke-dasharray="5.04 5.04"/>
<path d="M299.46 26.02C298.98 26.02 298.532 25.9667 298.116 25.86C297.711 25.7534 297.38 25.5507 297.124 25.252C296.868 24.9534 296.74 24.5107 296.74 23.924C296.74 23.4334 296.852 23.0227 297.076 22.692C297.3 22.3614 297.577 22.0787 297.908 21.844C298.239 21.6094 298.559 21.396 298.868 21.204L301.348 19.652C301.753 19.396 302.02 19.1827 302.148 19.012C302.276 18.8414 302.34 18.6547 302.34 18.452C302.34 18.2707 302.281 18.116 302.164 17.988C302.057 17.86 301.801 17.796 301.396 17.796C301.001 17.796 300.585 17.8387 300.148 17.924C299.711 18.0094 299.289 18.052 298.884 18.052C298.297 18.052 297.817 17.9134 297.444 17.636C297.081 17.348 296.9 16.9267 296.9 16.372C296.9 15.8387 297.092 15.4227 297.476 15.124C297.86 14.8147 298.377 14.596 299.028 14.468C299.689 14.34 300.425 14.276 301.236 14.276C302.548 14.276 303.561 14.5214 304.276 15.012C305.001 15.5027 305.364 16.2654 305.364 17.3C305.364 18.0147 305.156 18.6227 304.74 19.124C304.335 19.6254 303.769 20.116 303.044 20.596L300.084 22.548H303.748C304.345 22.548 304.815 22.6974 305.156 22.996C305.508 23.284 305.684 23.716 305.684 24.292C305.684 24.868 305.508 25.3 305.156 25.588C304.815 25.876 304.345 26.02 303.748 26.02H299.46Z" fill="#E11B54" fill-opacity="0.86"/>
<rect x="322" y="9.52002" width="22.68" height="21" rx="10.5" fill="white"/>
<rect x="322" y="9.52002" width="22.68" height="21" rx="10.5" stroke="white" stroke-width="5.04" stroke-linecap="round" stroke-linejoin="round" stroke-dasharray="5.04 5.04"/>
<path d="M332.092 25.504C331.324 25.4934 330.609 25.4294 329.948 25.312C329.297 25.1947 328.769 24.9814 328.364 24.672C327.969 24.3627 327.772 23.9307 327.772 23.376C327.772 22.8107 327.921 22.3787 328.22 22.08C328.529 21.7707 328.913 21.616 329.372 21.616C329.948 21.616 330.455 21.6534 330.892 21.728C331.34 21.8027 331.825 21.84 332.348 21.84C332.796 21.84 333.095 21.7707 333.244 21.632C333.404 21.4934 333.484 21.3014 333.484 21.056C333.484 20.5334 333.063 20.272 332.22 20.272H331.308C330.945 20.272 330.684 20.1867 330.524 20.016C330.364 19.8347 330.284 19.6214 330.284 19.376C330.284 19.12 330.364 18.9067 330.524 18.736C330.684 18.5654 330.945 18.48 331.308 18.48H332.22C332.615 18.48 332.876 18.4054 333.004 18.256C333.132 18.096 333.196 17.8987 333.196 17.664C333.196 17.472 333.127 17.3227 332.988 17.216C332.849 17.1094 332.604 17.056 332.252 17.056C331.825 17.056 331.393 17.1094 330.956 17.216C330.519 17.3227 330.065 17.376 329.596 17.376C329.095 17.376 328.668 17.2694 328.316 17.056C327.975 16.832 327.804 16.4107 327.804 15.792C327.804 15.3654 327.927 15.024 328.172 14.768C328.428 14.5014 328.769 14.2987 329.196 14.16C329.623 14.0107 330.092 13.9094 330.604 13.856C331.127 13.8027 331.66 13.776 332.204 13.776C332.972 13.776 333.671 13.872 334.3 14.064C334.929 14.2454 335.431 14.544 335.804 14.96C336.188 15.376 336.38 15.9414 336.38 16.656C336.38 17.4347 336.129 18.064 335.628 18.544C335.137 19.0134 334.487 19.248 333.676 19.248V19.6C334.22 19.6 334.705 19.6907 335.132 19.872C335.569 20.0427 335.916 20.32 336.172 20.704C336.428 21.088 336.556 21.6 336.556 22.24C336.556 22.9654 336.353 23.5734 335.948 24.064C335.543 24.544 335.004 24.9067 334.332 25.152C333.66 25.3867 332.913 25.504 332.092 25.504Z" fill="#E11B54" fill-opacity="0.86"/>
</svg>
