<svg width="20" height="20" viewBox="0 0 20 20" fill="none" xmlns="http://www.w3.org/2000/svg">
<g clip-path="url(#clip0_1405_2195)">
<path d="M9.06215 2.53451C9.38431 1.66389 10.6157 1.66389 10.9379 2.53451L12.5413 6.86785C12.6426 7.14157 12.8584 7.35738 13.1321 7.45867L17.4655 9.06215C18.3361 9.38431 18.3361 10.6157 17.4655 10.9379L13.1321 12.5413C12.8584 12.6426 12.6426 12.8584 12.5413 13.1321L10.9379 17.4655C10.6157 18.3361 9.38431 18.3361 9.06215 17.4655L7.45867 13.1321C7.35738 12.8584 7.14157 12.6426 6.86785 12.5413L2.53451 10.9379C1.66389 10.6157 1.66389 9.38431 2.53451 9.06215L6.86785 7.45867C7.14157 7.35738 7.35738 7.14157 7.45867 6.86785L9.06215 2.53451Z" fill="#FDD835"/>
</g>
<defs>
<clipPath id="clip0_1405_2195">
<rect width="20" height="20" fill="white"/>
</clipPath>
</defs>
</svg>
