<svg width="22" height="22" viewBox="0 0 22 22" fill="none" xmlns="http://www.w3.org/2000/svg">
<path d="M4.52939 5.70587H3.35293C2.72889 5.70587 2.13042 5.95377 1.68916 6.39503C1.2479 6.83629 1 7.43476 1 8.0588V18.647C1 19.271 1.2479 19.8695 1.68916 20.3107C2.13042 20.752 2.72889 20.9999 3.35293 20.9999H13.9411C14.5651 20.9999 15.1636 20.752 15.6049 20.3107C16.0461 19.8695 16.294 19.271 16.294 18.647V17.4705" stroke="#49297B" stroke-width="2" stroke-linecap="round" stroke-linejoin="round"/>
<path d="M15.1171 3.35293L18.6465 6.88232M20.2759 5.21762C20.7392 4.75428 20.9995 4.12585 20.9995 3.47058C20.9995 2.81531 20.7392 2.18687 20.2759 1.72353C19.8125 1.26018 19.1841 0.999878 18.5288 0.999878C17.8736 0.999878 17.2451 1.26018 16.7818 1.72353L6.88184 11.5882V15.1176H10.4112L20.2759 5.21762Z" stroke="#49297B" stroke-width="2" stroke-linecap="round" stroke-linejoin="round"/>
</svg>
