<svg width="20" height="20" viewBox="0 0 20 20" fill="none" xmlns="http://www.w3.org/2000/svg">
<path d="M19.8784 7.52952C19.7919 7.25299 19.6289 7.00897 19.4097 6.82784C19.1905 6.64671 18.9248 6.53648 18.6456 6.51088L13.3441 6.03675L11.266 0.91021C11.1578 0.641211 10.9753 0.411435 10.7415 0.249814C10.5077 0.0881931 10.233 0.00195313 9.952 0.00195312C9.67103 0.00195313 9.39634 0.0881931 9.16252 0.249814C8.9287 0.411435 8.7462 0.641211 8.638 0.91021L6.56614 6.03675L1.25837 6.51366C0.978105 6.53809 0.711032 6.64782 0.490643 6.82908C0.270253 7.01034 0.106357 7.25507 0.019508 7.53258C-0.0673411 7.81009 -0.0732773 8.10802 0.00244385 8.38902C0.078165 8.67001 0.232173 8.92156 0.445154 9.11212L4.47195 12.7626L3.26507 18.1836C3.20126 18.4673 3.21947 18.7642 3.31743 19.0372C3.41539 19.3102 3.58875 19.5472 3.81584 19.7185C4.04293 19.8899 4.31368 19.988 4.59422 20.0006C4.87477 20.0132 5.15267 19.9397 5.39318 19.7893L9.94575 16.9186L14.5081 19.7893C14.7487 19.9397 15.0266 20.0132 15.3071 20.0006C15.5877 19.988 15.8584 19.8899 16.0855 19.7185C16.3126 19.5472 16.4859 19.3102 16.5839 19.0372C16.6819 18.7642 16.7001 18.4673 16.6363 18.1836L15.4303 12.757L19.4562 9.11212C19.6691 8.9209 19.8228 8.66864 19.898 8.38705C19.9731 8.10546 19.9663 7.80711 19.8784 7.52952ZM18.5198 7.99254L14.4939 11.6374C14.2979 11.8142 14.1522 12.0431 14.0723 12.2995C13.9924 12.5558 13.9813 12.8299 14.0404 13.0922L15.25 18.5225L10.6911 15.6518C10.4687 15.5113 10.2133 15.4369 9.9529 15.4369C9.69248 15.4369 9.43708 15.5113 9.21466 15.6518L4.66209 18.5225L5.86361 13.0959C5.92266 12.8336 5.91164 12.5595 5.83174 12.3032C5.75184 12.0468 5.60608 11.8179 5.41014 11.6411L1.38245 7.99809C1.38212 7.99533 1.38212 7.99253 1.38245 7.98976L6.68843 7.51378C6.94748 7.49009 7.19538 7.39348 7.4054 7.23437C7.61541 7.07525 7.77955 6.85968 7.88013 6.61089L9.952 1.49084L12.023 6.61089C12.1236 6.85968 12.2877 7.07525 12.4977 7.23437C12.7077 7.39348 12.9556 7.49009 13.2147 7.51378L18.5216 7.98976V7.99624L18.5198 7.99254Z" fill="#FFD700"/>
</svg>
