<svg width="24" height="24" viewBox="0 0 24 24" fill="none" xmlns="http://www.w3.org/2000/svg">
<path d="M11.3333 18H12.6667V10.6667H11.3333V18ZM12 8.76933C12.2329 8.76933 12.4276 8.69067 12.584 8.53333C12.7413 8.376 12.82 8.18133 12.82 7.94933C12.82 7.71644 12.7413 7.52133 12.584 7.364C12.4276 7.20667 12.2329 7.128 12 7.128C11.7671 7.128 11.5724 7.20667 11.416 7.364C11.2587 7.52133 11.18 7.71644 11.18 7.94933C11.18 8.18133 11.2587 8.376 11.416 8.53333C11.5724 8.69067 11.7671 8.76933 12 8.76933ZM12.004 24C10.3453 24 8.78533 23.6853 7.324 23.056C5.86356 22.4258 4.59289 21.5707 3.512 20.4907C2.43111 19.4116 1.57556 18.1422 0.945333 16.6827C0.315111 15.2231 0 13.6636 0 12.004C0 10.3453 0.314667 8.78533 0.944 7.324C1.57422 5.86356 2.42933 4.59289 3.50933 3.512C4.58844 2.43111 5.85778 1.57556 7.31733 0.945333C8.77689 0.315111 10.3364 0 11.996 0C13.6547 0 15.2147 0.314667 16.676 0.944C18.1364 1.57422 19.4071 2.42933 20.488 3.50933C21.5689 4.58844 22.4244 5.85778 23.0547 7.31733C23.6849 8.77689 24 10.3364 24 11.996C24 13.6547 23.6853 15.2147 23.056 16.676C22.4258 18.1364 21.5707 19.4071 20.4907 20.488C19.4116 21.5689 18.1422 22.4244 16.6827 23.0547C15.2231 23.6849 13.6636 24 12.004 24ZM12 22.6667C14.9778 22.6667 17.5 21.6333 19.5667 19.5667C21.6333 17.5 22.6667 14.9778 22.6667 12C22.6667 9.02222 21.6333 6.5 19.5667 4.43333C17.5 2.36667 14.9778 1.33333 12 1.33333C9.02222 1.33333 6.5 2.36667 4.43333 4.43333C2.36667 6.5 1.33333 9.02222 1.33333 12C1.33333 14.9778 2.36667 17.5 4.43333 19.5667C6.5 21.6333 9.02222 22.6667 12 22.6667Z" fill="white"/>
</svg>
