<svg width="26" height="22" viewBox="0 0 26 22" fill="none" xmlns="http://www.w3.org/2000/svg">
<path d="M3.36328 11.53C5.18092 13.6927 8.02792 13.259 9.27237 9.27271C10.6456 13.6714 14.7879 14.3179 16.3633 9.27271C17.4671 12.8087 20.3614 13.9208 22.2724 11.5973" stroke="#FFD700" stroke-width="1.5" stroke-linecap="round" stroke-linejoin="round"/>
<path d="M22.2727 21.0909V11.6364C22.2727 10.3482 21.1973 9.27273 19.9091 9.27273H5.72727C4.43909 9.27273 3.36364 10.3482 3.36364 11.6364V21.0909M1 21.0909H24.6364M6.90909 4.54545V9.27273M12.8182 4.54545V9.27273M18.7273 4.54545V9.27273M6.90909 1V1.59091M12.8182 1V1.59091M18.7273 1V1.59091" stroke="#FFD700" stroke-width="1.5" stroke-linecap="round" stroke-linejoin="round"/>
</svg>
