<svg width="27" height="33" viewBox="0 0 27 33" fill="none" xmlns="http://www.w3.org/2000/svg">
<path d="M12.9814 6.44471L18.0484 5.0823M18.9022 9.57664L14.726 10.9158M17.5684 14.7725L13.3232 16.3088M16.1677 20.0335L11.9915 21.3727M11.4292 23.609C11.3606 23.8465 11.3393 24.0949 11.3666 24.3401C11.394 24.5853 11.4694 24.8225 11.5885 25.0382C11.8292 25.4738 12.2334 25.7951 12.7124 25.9316C13.1914 26.068 13.7058 26.0084 14.1425 25.7658C14.5792 25.5232 14.9024 25.1175 15.041 24.638L18.8332 9.77374C19.2402 8.34383 19.0632 6.81338 18.341 5.51908C17.6189 4.22477 16.4108 3.27263 14.9826 2.87212C13.5543 2.47161 12.0229 2.65553 10.7251 3.38342C9.42741 4.11131 8.46969 5.32356 8.06267 6.75347C7.99375 6.98992 7.97224 7.23746 7.99935 7.48183C8.02647 7.7262 8.10168 7.96258 8.22067 8.17735C8.33965 8.39213 8.50006 8.58105 8.69265 8.73326C8.88524 8.88546 9.1062 8.99794 9.34283 9.06421C9.57946 9.13048 9.82707 9.14923 10.0714 9.11939C10.3158 9.08956 10.552 9.01172 10.7665 8.89035C10.9811 8.76899 11.1697 8.6065 11.3215 8.41224C11.4733 8.21798 11.5853 7.99578 11.6511 7.75845C11.7169 7.52111 11.8289 7.29892 11.9807 7.10466C12.1325 6.9104 12.3211 6.74791 12.5357 6.62655C12.7502 6.50518 12.9865 6.42734 13.2308 6.3975C13.4751 6.36766 13.7228 6.38642 13.9594 6.45269C14.196 6.51896 14.417 6.63144 14.6096 6.78364C14.8022 6.93584 14.9626 7.12477 15.0815 7.33954C15.2005 7.55432 15.2758 7.79069 15.3029 8.03506C15.33 8.27944 15.3085 8.52697 15.2395 8.76343L11.4292 23.609Z" stroke="white" stroke-width="1.5" stroke-linecap="round" stroke-linejoin="round"/>
<circle cx="12" cy="30" r="2.25" stroke="white" stroke-width="1.5"/>
</svg>
