<svg width="25" height="24" viewBox="0 0 25 24" fill="none" xmlns="http://www.w3.org/2000/svg">
<path d="M7.50008 0L6.66675 0.833333V3.37833C7.22062 3.31711 7.77955 3.31711 8.33341 3.37833V1.66667H23.3334V10H20.4884L18.3334 12.155V10H14.9551C15.0163 10.5539 15.0163 11.1128 14.9551 11.6667H16.6667V14.1667L18.0901 14.7567L21.1784 11.6667H24.1667L25.0001 10.8333V0.833333L24.1667 0H7.50008Z" fill="white"/>
<path fill-rule="evenodd" clip-rule="evenodd" d="M10.695 15.7151C11.746 15.0271 12.5468 14.0182 12.9783 12.8385C13.4099 11.6588 13.449 10.3713 13.0901 9.16753C12.7311 7.96377 11.9931 6.90803 10.9859 6.15737C9.97875 5.40671 8.75615 5.00122 7.5 5.00122C6.24385 5.00122 5.02125 5.40671 4.01406 6.15737C3.00688 6.90803 2.26891 7.96377 1.90994 9.16753C1.55096 10.3713 1.59015 11.6588 2.02168 12.8385C2.45321 14.0182 3.25402 15.0271 4.305 15.7151C3.01786 16.3214 1.92968 17.2812 1.16742 18.4826C0.40517 19.684 0.000280912 21.0773 0 22.5001L0 23.3334H1.66667V22.5001C1.71782 20.9871 2.35481 19.5532 3.44318 18.501C4.53156 17.4488 5.98617 16.8607 7.5 16.8607C9.01383 16.8607 10.4684 17.4488 11.5568 18.501C12.6452 19.5532 13.2822 20.9871 13.3333 22.5001V23.3334H15V22.5001C14.9997 21.0773 14.5948 19.684 13.8326 18.4826C13.0703 17.2812 11.9821 16.3214 10.695 15.7151ZM7.5 15.0001C6.39493 15.0001 5.33512 14.5611 4.55372 13.7797C3.77232 12.9983 3.33333 11.9385 3.33333 10.8334C3.33333 9.72837 3.77232 8.66856 4.55372 7.88716C5.33512 7.10576 6.39493 6.66677 7.5 6.66677C8.60507 6.66677 9.66488 7.10576 10.4463 7.88716C11.2277 8.66856 11.6667 9.72837 11.6667 10.8334C11.6667 11.9385 11.2277 12.9983 10.4463 13.7797C9.66488 14.5611 8.60507 15.0001 7.5 15.0001Z" fill="white"/>
</svg>
