<svg width="27" height="27" viewBox="0 0 27 27" fill="none" xmlns="http://www.w3.org/2000/svg">
<path d="M13.5 3.375C7.3125 3.375 2.25 7.4025 2.25 12.375C2.27825 13.5705 2.5702 14.7451 3.10501 15.8147C3.63982 16.8843 4.40427 17.8226 5.34375 18.5625C5.34375 19.2375 4.87125 21.0037 2.25 23.625C4.91625 23.5012 7.47 22.5 9.52875 20.8125C10.8113 21.1838 12.1613 21.375 13.5 21.375C19.6875 21.375 24.75 17.3475 24.75 12.375C24.75 7.4025 19.6875 3.375 13.5 3.375ZM13.5 19.125C8.5275 19.125 4.5 16.0988 4.5 12.375C4.5 8.65125 8.5275 5.625 13.5 5.625C18.4725 5.625 22.5 8.65125 22.5 12.375C22.5 16.0988 18.4725 19.125 13.5 19.125Z" fill="white"/>
</svg>
