<svg width="30" height="34" viewBox="0 0 30 34" fill="none" xmlns="http://www.w3.org/2000/svg">
<path d="M8.5 21.5L8.5 26L8.829 26C13.2535 25.9999 17.6548 26.6382 21.897 27.895L22.25 28L22.5 28L22.5 5L22.25 5L21.897 5.105C17.6548 6.36187 13.2535 7.00012 8.829 7L8.5 7L8.5 11.5" stroke="white" stroke-width="1.5"/>
<path d="M17 16.5H1M11.5 11.5C11.5 12.077 12.165 13.062 12.728 13.794C13.2162 14.4385 13.8055 14.9998 14.473 15.456C15.2 15.945 16.2 16.5 16.99 16.5C16.2 16.5 15.2 17.056 14.473 17.544C13.8055 18.0002 13.2162 18.5615 12.728 19.206C12.165 19.938 11.5 20.923 11.5 21.5" stroke="white" stroke-width="1.5"/>
</svg>
