<svg width="25" height="25" viewBox="0 0 25 25" fill="none" xmlns="http://www.w3.org/2000/svg">
<path d="M24.5 12.5H8.5M19 7.5C19 8.077 19.665 9.062 20.228 9.794C20.7162 10.4385 21.3055 10.9998 21.973 11.456C22.7 11.945 23.7 12.5 24.49 12.5C23.7 12.5 22.7 13.056 21.973 13.544C21.3055 14.0002 20.7162 14.5615 20.228 15.206C19.665 15.938 19 16.923 19 17.5M15 7.5V3H14.671C10.2465 3.00009 5.8452 2.36185 1.603 1.105L1.25 1H1V24H1.25L1.603 23.895C5.84519 22.6381 10.2465 21.9999 14.671 22H15V17.5" stroke="white" stroke-width="1.5"/>
</svg>
