<svg width="17" height="19" viewBox="0 0 17 19" fill="none" xmlns="http://www.w3.org/2000/svg">
<g clip-path="url(#clip0)">
<path d="M8.12936 0L6.51151 0.943855L14.625 5.68392L14.6232 15.1745L16.2522 14.2112V4.74197L8.12936 0Z" fill="white"/>
<path d="M10.5513 8.07595L8.10471 16.9544V9.48818L10.5513 8.07595ZM4.8792 3.79434L6.5115 4.72871L3.25759 6.63628L3.26504 14.2297L1.64113 13.2806V5.68062L4.8792 3.79434ZM13.0062 16.1103V14.2273L10.4745 15.6991L13.0062 6.62967L11.3823 5.68723L6.52079 8.51312L6.5115 12.3273L4.88153 11.3768V7.59197L9.74352 4.74101L4.88153 1.89385L0.0348969 4.73769V14.2226L4.88153 17.0726V13.2802L6.5115 14.2325L6.50917 18.0008L8.13029 18.9593L13.0062 16.1103Z" fill="white"/>
<path d="M6.51151 0.943855L14.625 5.68392L14.6232 15.1745L16.2522 14.2112V4.74197L8.12936 0L6.51151 0.943855Z" fill="white"/>
</g>
<defs>
<clipPath id="clip0">
<rect width="16.2857" height="19" fill="white"/>
</clipPath>
</defs>
</svg>
