<svg width="320" height="71" viewBox="0 0 320 71" fill="none" xmlns="http://www.w3.org/2000/svg">
<path d="M160.073 6.0388C207.461 6.0388 254.844 6.0811 302.231 6.00002C310.883 5.98592 318.94 12.3414 319.959 21.538C320.084 22.6624 319.806 23.7552 319.81 24.8691C319.827 31.496 319.831 38.1229 319.81 44.7462C319.795 49.4626 315.072 52.6879 310.587 51.0735C307.775 50.0619 305.957 47.3441 305.914 44.0307C305.889 41.951 305.917 39.8677 305.903 37.7845C305.885 35.6765 304.31 33.8647 302.239 33.5369C299.993 33.1809 297.84 34.4252 297.148 36.4802C296.913 37.1817 296.824 37.9008 296.824 38.6446C296.831 46.8542 296.831 55.0637 296.827 63.2733C296.827 67.2037 293.915 70.4149 289.89 70.9436C286.179 71.4301 282.308 68.8533 281.331 65.2367C281.085 64.3273 280.953 63.4073 280.953 62.4591C280.967 55.247 280.899 48.0315 280.989 40.823C281.024 38.0347 278.878 36.3322 276.896 36.3146C274.315 36.2899 272.504 38.07 272.429 40.7701C272.405 41.6478 272.479 42.529 272.034 43.3468C271.232 44.8238 269.474 45.6839 267.938 45.3243C266.041 44.8837 264.769 43.3962 264.747 41.4857C264.715 38.6728 264.758 35.8563 264.726 33.0434C264.704 31.0765 263.279 29.7582 261.3 29.8005C259.475 29.8392 258.156 31.1223 258.149 32.9306C258.135 37.9149 258.149 42.8992 258.135 47.8834C258.131 49.5684 257.778 51.1299 256.445 52.3566C254.926 53.756 252.641 54.2142 250.734 53.3541C248.741 52.4588 247.697 50.8867 247.636 48.7188C247.604 47.5486 247.622 46.3748 247.633 45.201C247.636 44.7039 247.533 44.4889 246.962 44.7286C243.205 46.2937 240.082 43.1142 239.982 39.903C239.925 38.0559 239.975 36.2088 239.965 34.3617C239.957 33.2549 239.583 32.2644 238.735 31.5383C236.917 29.9838 234.403 30.7698 233.63 33.0963C233.434 33.6885 233.398 34.2983 233.398 34.9187C233.402 41.4575 233.42 47.9962 233.391 54.535C233.38 56.7487 232.514 58.6063 230.589 59.8365C227.641 61.7224 224.607 60.4675 222.971 57.9577C222.251 56.8509 221.944 55.6277 221.955 54.2847C221.991 48.5391 221.969 42.7899 221.973 37.0442C221.973 36.4556 221.944 35.8739 221.77 35.3064C221.349 33.9352 220.158 32.987 218.857 32.9941C217.556 33.0011 216.326 33.9387 215.973 35.3311C215.628 36.6988 215.695 38.1193 215.581 39.5187C215.517 40.3048 215.574 41.0944 215.442 41.884C214.9 45.1269 212.291 47.2102 208.897 46.8506C205.978 46.5404 203.714 44.1435 203.635 41.0133C203.589 39.138 203.671 37.2592 203.611 35.384C203.507 32.2186 200.288 30.4561 197.636 32.0882C196.263 32.9341 195.811 34.2525 195.811 35.7788C195.811 42.7864 195.8 49.794 195.825 56.8015C195.829 57.9824 195.543 59.054 194.998 60.0868C193.633 62.6706 190.478 64.1193 187.622 63.4566C184.567 62.7481 182.268 60.0833 182.257 57.1294C182.232 50.7069 182.25 44.288 182.247 37.8655C182.247 35.9444 181.227 34.4957 179.587 34.0339C177.352 33.403 175.113 34.961 174.971 37.2522C174.928 37.9219 174.981 38.5987 174.8 39.2614C174.347 40.9181 172.925 41.8064 171.032 41.5949C169.659 41.4398 168.39 40.0722 168.365 38.6093C168.326 36.3216 168.365 34.0339 168.34 31.7498C168.329 30.8051 168.226 29.8886 167.47 29.1589C166.561 28.2812 165.538 28.0627 164.369 28.4892C163.349 28.8593 162.676 29.8569 162.676 31.0483C162.665 35.3875 162.672 39.7267 162.669 44.0659C162.669 45.6169 162.141 46.9599 160.886 47.9222C159.446 49.0255 157.82 49.1559 156.181 48.4439C154.487 47.7107 153.749 46.2831 153.603 44.5277C153.56 44.0025 153.568 43.4702 153.592 42.945C153.66 41.5526 153.617 40.2343 152.58 39.0852C152.07 38.5212 151.967 37.7069 151.97 36.9209C151.978 35.4827 151.985 34.048 151.967 32.6098C151.942 30.6429 150.623 29.2682 148.812 29.2893C147.023 29.3105 145.764 30.657 145.761 32.5922C145.753 38.2498 145.775 43.9108 145.75 49.5684C145.732 53.3013 142.192 55.811 138.592 54.6901C136.435 54.0168 134.884 51.9653 134.874 49.7199C134.859 47.2877 134.856 44.852 134.881 42.4198C134.888 41.8205 134.706 41.4751 134.129 41.1966C132.253 40.2907 131.28 38.7926 131.302 36.6953C131.316 35.2888 131.309 33.8788 131.291 32.4724C131.287 32.1269 131.305 31.7004 130.942 31.5347C130.564 31.3655 130.275 31.711 130.018 31.9295C129.334 32.5217 129.027 33.2761 129.013 34.1855C128.977 36.5789 128.125 37.3967 125.705 37.3297C125.088 37.3121 125.099 37.6399 125.099 38.0383C125.099 39.2121 125.099 40.3824 125.099 41.5562C125.099 44.2245 125.145 46.8929 125.081 49.5613C125.028 51.7644 123.958 53.4634 121.965 54.4398C120.023 55.3916 118.073 55.1554 116.336 53.8688C114.993 52.8712 114.215 51.5141 114.208 49.8045C114.201 47.8411 114.194 45.8742 114.208 43.9108C114.208 43.3786 114.112 42.9556 113.617 42.6383C112.383 41.8487 111.916 40.6502 111.913 39.2508C111.905 36.935 111.913 34.6191 111.909 32.3032C111.909 31.2739 111.638 31.0694 110.608 31.2845C109.406 31.5383 108.508 32.5147 108.38 33.7273C108.344 34.048 108.366 34.3723 108.351 34.6931C108.276 36.3886 107.196 37.4461 105.499 37.3685C104.836 37.3368 104.583 37.5201 104.398 38.1546C103.656 40.7031 101.389 42.0426 98.7548 41.4821C98.1595 41.3552 97.8957 41.6161 97.557 41.9651C96.1275 43.4455 94.1562 43.6288 92.5912 42.4162C91.6073 41.6549 91.2437 40.5903 91.2401 39.3883C91.2366 36.4556 91.2437 33.5228 91.2294 30.5936C91.2294 30.2411 91.4184 29.7441 90.9514 29.5819C90.5664 29.4444 90.2242 29.7723 89.9283 30.0084C88.9194 30.8086 88.7768 31.9472 88.7768 33.1104C88.7661 38.6798 88.7875 44.2527 88.7626 49.8222C88.7483 53.1109 85.54 55.5854 82.2853 54.8593C79.6331 54.2671 77.8934 52.057 77.8827 49.1947C77.8685 44.1822 77.8827 39.1662 77.8756 34.1538C77.8756 32.8249 77.1947 31.8238 76.0504 31.4078C74.8776 30.9813 73.7226 31.288 72.8207 32.2397C72.3893 32.6944 72.2147 33.2267 72.1755 33.833C72.1434 34.33 72.1077 34.8306 72.0115 35.317C71.7334 36.7411 70.6533 37.506 69.1667 37.3791C67.9048 37.2698 66.8603 36.2053 66.8353 34.9081C66.7961 33.0328 66.8282 31.154 66.814 29.2788C66.8068 28.2354 66.4111 27.3718 65.3987 26.9276C63.9015 26.272 62.3294 27.3154 62.2403 29.0602C62.1761 30.3468 62.2189 31.6405 62.2189 32.9306C62.2189 35.1584 62.2296 37.3861 62.2118 39.6139C62.2011 41.1332 61.5131 42.2611 60.0871 42.8815C59.6308 43.0789 59.4276 43.3609 59.3029 43.8368C58.5436 46.7731 55.9412 48.4897 52.929 48.0844C50.1841 47.7142 48.1414 45.2891 48.1022 42.3951C48.0737 40.5198 48.1913 38.6481 47.9774 36.7728C47.735 34.6719 46.1701 33.2373 44.1096 33.343C42.1846 33.4382 40.6553 35.0879 40.6517 37.1147C40.6446 43.8861 40.6731 50.6611 40.6339 57.4325C40.6196 60.1749 39.4254 62.304 36.8587 63.5236C32.9909 65.3601 28.3638 62.9561 27.6508 58.772C27.526 58.0494 27.469 57.3232 27.469 56.5865C27.4797 50.7809 27.4654 44.9754 27.4797 39.1698C27.4832 37.7668 26.8915 36.7305 25.6652 36.0784C24.3212 35.3664 23.0094 35.525 21.8401 36.4661C20.8206 37.2839 20.5069 38.4084 20.5211 39.6844C20.5425 41.3799 19.7904 42.4832 18.3751 42.9767C16.8743 43.5019 15.0634 42.6877 14.4823 41.2142C14.2221 40.5515 14.1116 39.8607 14.1152 39.1486C14.1223 37.1253 14.1294 35.102 14.1152 33.0787C14.1009 31.4043 13.0314 30.3327 11.4237 30.3398C9.83024 30.3468 8.77505 31.4325 8.77148 33.1174C8.76079 37.1923 8.77148 41.2671 8.76792 45.3455C8.76792 47.0727 8.18685 48.5355 6.61833 49.4274C3.61675 51.1334 0.208776 49.2864 0.101831 45.7226C-0.0336325 41.1543 -0.0478918 36.5825 0.144609 32.0071C0.244424 29.6665 0.305026 27.3083 0.158868 24.9748C-0.00511386 22.3769 0.141044 19.8672 1.03938 17.3962C3.47059 10.6847 10.0869 6.0388 17.295 6.0388C64.8889 6.0388 112.483 6.0388 160.073 6.0388Z" fill="white"/>
<path d="M16.2847 20.2135L20.753 15.7452" stroke="#A5D9FF" stroke-width="4.24826" stroke-linecap="round"/>
<path d="M8.95996 30.5518L7.00024 24.5441" stroke="#FFF0AF" stroke-width="4.24826" stroke-linecap="round"/>
<path d="M26.7466 23.5264L31.8091 27.3082" stroke="#FFC7EC" stroke-width="4.24826" stroke-linecap="round"/>
<path d="M7.08643 11.2142L13.3725 10.5681" stroke="#CBFFA2" stroke-width="4.24826" stroke-linecap="round"/>
<path d="M23.8042 6.73169L28.8668 10.5135" stroke="#FFD19E" stroke-width="4.24826" stroke-linecap="round"/>
<path d="M48.6543 14.4666L54.4619 16.9572" stroke="#A5D9FF" stroke-width="4.24826" stroke-linecap="round"/>
<path d="M36.3359 11.5021L41.187 7.45254" stroke="#FFF0AF" stroke-width="4.24826" stroke-linecap="round"/>
<path d="M49.4609 25.411L47.8283 31.5156" stroke="#FFC7EC" stroke-width="4.24826" stroke-linecap="round"/>
<path d="M53.5962 2.58508L56.5293 8.1823" stroke="#CBFFA2" stroke-width="4.24826" stroke-linecap="round"/>
<path d="M63.9634 16.4451L62.3307 22.5497" stroke="#FFD19E" stroke-width="4.24826" stroke-linecap="round"/>
<path d="M240.122 17.6678L233.996 19.2205" stroke="#A5D9FF" stroke-width="4.24826" stroke-linecap="round"/>
<path d="M251.705 12.5334L250.315 18.6978" stroke="#FFF0AF" stroke-width="4.24826" stroke-linecap="round"/>
<path d="M232.828 9.46802L230.414 3.6283" stroke="#FFC7EC" stroke-width="4.24826" stroke-linecap="round"/>
<path d="M243.42 30.1063L237.689 27.4449" stroke="#CBFFA2" stroke-width="4.24826" stroke-linecap="round"/>
<path d="M226.763 25.4033L224.348 19.5636" stroke="#FFD19E" stroke-width="4.24826" stroke-linecap="round"/>
<path d="M272.735 14.2461L268.617 19.0391" stroke="#A5D9FF" stroke-width="4.24826" stroke-linecap="round"/>
<path d="M282.491 6.1615L276.352 4.66106" stroke="#FFF0AF" stroke-width="4.24826" stroke-linecap="round"/>
<path d="M276.829 24.4283L280.982 29.1909" stroke="#FFC7EC" stroke-width="4.24826" stroke-linecap="round"/>
<path d="M263.067 5.75366L262.897 12.0706" stroke="#CBFFA2" stroke-width="4.24826" stroke-linecap="round"/>
<path d="M259.86 22.7622L264.013 27.5247" stroke="#FFD19E" stroke-width="4.24826" stroke-linecap="round"/>
<path d="M298.27 19.6501L296.838 13.4953" stroke="#A5D9FF" stroke-width="4.24826" stroke-linecap="round"/>
<path d="M299.024 32.2979L303.863 28.2337" stroke="#FFF0AF" stroke-width="4.24826" stroke-linecap="round"/>
<path d="M287.638 16.9327L281.341 17.4674" stroke="#FFC7EC" stroke-width="4.24826" stroke-linecap="round"/>
<path d="M310.835 16.8722L305.84 13.0013" stroke="#CBFFA2" stroke-width="4.24826" stroke-linecap="round"/>
<path d="M299.012 4.23108L292.716 4.76578" stroke="#FFD19E" stroke-width="4.24826" stroke-linecap="round"/>
<path d="M87.8066 20.2133L92.275 15.7449" stroke="#A5D9FF" stroke-width="4.24826" stroke-linecap="round"/>
<path d="M80.4819 30.5515L78.5222 24.5439" stroke="#FFF0AF" stroke-width="4.24826" stroke-linecap="round"/>
<path d="M98.269 23.5262L103.332 27.3081" stroke="#FFC7EC" stroke-width="4.24826" stroke-linecap="round"/>
<path d="M78.6084 11.214L84.8945 10.5679" stroke="#CBFFA2" stroke-width="4.24826" stroke-linecap="round"/>
<path d="M95.3262 6.73157L100.389 10.5134" stroke="#FFD19E" stroke-width="4.24826" stroke-linecap="round"/>
<path d="M130.467 21.1689L124.239 20.0994" stroke="#A5D9FF" stroke-width="4.24826" stroke-linecap="round"/>
<path d="M143.137 21.1829L139.363 26.2509" stroke="#FFF0AF" stroke-width="4.24826" stroke-linecap="round"/>
<path d="M127.133 10.7134L127.299 4.39639" stroke="#FFC7EC" stroke-width="4.24826" stroke-linecap="round"/>
<path d="M128.428 33.8748L124.272 29.1146" stroke="#CBFFA2" stroke-width="4.24826" stroke-linecap="round"/>
<path d="M115.118 22.8105L115.284 16.4936" stroke="#FFD19E" stroke-width="4.24826" stroke-linecap="round"/>
<path d="M203.435 17.689L198.966 13.2206" stroke="#A5D9FF" stroke-width="4.24826" stroke-linecap="round"/>
<path d="M210.759 28.0272L212.719 22.0196" stroke="#FFF0AF" stroke-width="4.24826" stroke-linecap="round"/>
<path d="M192.972 21.002L187.91 24.7838" stroke="#FFC7EC" stroke-width="4.24826" stroke-linecap="round"/>
<path d="M212.633 8.6897L206.347 8.04359" stroke="#CBFFA2" stroke-width="4.24826" stroke-linecap="round"/>
<path d="M195.915 4.20715L190.852 7.98899" stroke="#FFD19E" stroke-width="4.24826" stroke-linecap="round"/>
<path d="M168.588 16.7875L162.793 14.2672" stroke="#A5D9FF" stroke-width="4.24826" stroke-linecap="round"/>
<path d="M179.191 23.7229L178.814 17.415" stroke="#FFF0AF" stroke-width="4.24826" stroke-linecap="round"/>
<path d="M160.068 23.7035L156.743 29.0773" stroke="#FFC7EC" stroke-width="4.24826" stroke-linecap="round"/>
<path d="M173.849 5.0437L167.764 6.74587" stroke="#CBFFA2" stroke-width="4.24826" stroke-linecap="round"/>
<path d="M156.652 6.99878L153.327 12.3726" stroke="#FFD19E" stroke-width="4.24826" stroke-linecap="round"/>
</svg>
