<svg width="32" height="32" viewBox="0 0 32 32" fill="none" xmlns="http://www.w3.org/2000/svg">
<g clip-path="url(#clip0_66_80)">
<path d="M30 14.9999C30.002 13.9986 29.7534 13.0126 29.2768 12.132C28.8002 11.2513 28.1107 10.504 27.2713 9.95802C26.4319 9.41207 25.4692 9.08489 24.4709 9.0063C23.4726 8.92771 22.4706 9.10022 21.5561 9.50809C20.6415 9.91597 19.8436 10.5462 19.2351 11.3415C18.6266 12.1367 18.2267 13.0716 18.072 14.0609C17.9173 15.0502 18.0127 16.0625 18.3495 17.0056C18.6862 17.9486 19.2536 18.7923 20 19.4599V28.9999L24 27.1161L28 28.9999V19.4599C28.6287 18.8993 29.1318 18.2122 29.4765 17.4436C29.8211 16.675 29.9995 15.8423 30 14.9999ZM26 25.8476L24 24.9061L22 25.8476V20.6499C23.2925 21.1167 24.7075 21.1167 26 20.6499V25.8476ZM24 18.9999C23.2089 18.9999 22.4355 18.7653 21.7777 18.3258C21.1199 17.8863 20.6072 17.2616 20.3045 16.5307C20.0017 15.7997 19.9225 14.9955 20.0768 14.2196C20.2312 13.4436 20.6122 12.7309 21.1716 12.1715C21.731 11.6121 22.4437 11.2311 23.2196 11.0768C23.9956 10.9224 24.7998 11.0017 25.5307 11.3044C26.2616 11.6072 26.8863 12.1198 27.3259 12.7776C27.7654 13.4354 28 14.2088 28 14.9999C27.9988 16.0604 27.577 17.0771 26.8271 17.827C26.0772 18.5769 25.0605 18.9987 24 18.9999Z" fill="white"/>
<path d="M14 2C12.4092 2.00175 10.8841 2.63445 9.75929 3.75929C8.63445 4.88413 8.00175 6.40924 8 8V14H6C5.46975 14.0006 4.9614 14.2115 4.58646 14.5865C4.21152 14.9614 4.00061 15.4698 4 16V28C4.00061 28.5302 4.21152 29.0386 4.58646 29.4135C4.9614 29.7885 5.46975 29.9994 6 30H17V28H6V16H15V14H10V8C9.9988 7.00797 10.3663 6.05089 11.0311 5.31458C11.6959 4.57826 12.6106 4.11526 13.5976 4.01547C14.5846 3.91567 15.5735 4.1862 16.3722 4.77453C17.171 5.36286 17.7226 6.22701 17.92 7.1992L19.88 6.8008C19.6006 5.44686 18.8635 4.23042 17.7926 3.35609C16.7218 2.48177 15.3825 2.00289 14 2Z" fill="white"/>
</g>
<defs>
<clipPath id="clip0_66_80">
<rect width="32" height="32" fill="white"/>
</clipPath>
</defs>
</svg>
