<svg width="30" height="34" viewBox="0 0 30 34" fill="none" xmlns="http://www.w3.org/2000/svg">
<g clip-path="url(#clip0_461_2615)">
<path d="M13.9511 22.3344H7.89919V16.6379C7.89919 16.3046 7.62753 16.0319 7.2955 16.0319C6.96348 16.0319 6.69182 16.3046 6.69182 16.6379V20.28C6.29641 20.2952 5.89798 20.1346 5.61123 19.8255C4.54271 18.6711 3.53456 16.8924 4.80833 14.9593C5.56595 13.9412 6.98461 11.7989 7.18986 9.74155C9.11561 11.8868 11.141 14.5593 10.006 17.0106C9.99698 17.0288 9.99094 17.05 9.98189 17.0682C9.66194 17.9954 9.18805 18.7498 8.57229 19.3134C8.32478 19.5376 8.30969 19.9225 8.53305 20.1709C8.75641 20.4194 9.13975 20.4345 9.38726 20.2103C10.1479 19.5164 10.7274 18.6014 11.1138 17.4954C12.7286 13.9503 9.55328 10.5112 7.23513 7.99928C7.07818 7.8296 6.92726 7.66294 6.77935 7.50235C6.57712 7.28116 6.2451 7.24177 5.99759 7.40842C5.75008 7.57507 5.66254 7.89929 5.78931 8.17199C6.71899 10.1355 4.52762 13.317 3.83338 14.2472C3.82735 14.2563 3.82131 14.2654 3.81527 14.2745C2.49019 16.2713 2.82222 18.5953 4.72985 20.6527C5.23695 21.2011 5.93722 21.4981 6.64353 21.4981C6.65862 21.4981 6.67673 21.4981 6.69182 21.4981V22.3404H0.603682C0.271657 22.3344 0 22.604 0 22.9404V28.9459C0 28.9459 0 28.9732 0 28.9853V33.394C0 33.7273 0.271657 34 0.603682 34H13.9511C14.2831 34 14.5548 33.7273 14.5548 33.394V22.9404C14.5548 22.6071 14.2831 22.3344 13.9511 22.3344ZM4.30727 32.788L13.3474 23.71V28.0278L8.64171 32.788H4.30727ZM5.14639 23.5464L1.20736 27.5006V23.5464H5.14639ZM1.20736 29.2156L6.85481 23.5464H11.805L2.60187 32.788H1.21038V29.2125L1.20736 29.2156ZM10.3411 32.791L13.3444 29.7519V32.791H10.3411Z" fill="white"/>
<path d="M29.9999 28.87V22.8312C29.9999 22.8312 29.9999 22.8069 29.9999 22.7978V15.5682C29.9999 15.2349 29.7283 14.9622 29.3963 14.9622H23.3262V9.3748C23.3262 9.0415 23.0546 8.7688 22.7225 8.7688C22.3905 8.7688 22.1189 9.0415 22.1189 9.3748V12.9805C21.7325 12.9927 21.3462 12.8321 21.0654 12.5291C19.9909 11.3746 18.9797 9.58993 20.2535 7.65374C21.0111 6.63565 22.4267 4.49342 22.635 2.43603C24.5608 4.58432 26.5861 7.25378 25.4512 9.70507C25.4421 9.72325 25.4361 9.74447 25.427 9.76265C25.1373 10.602 24.7207 11.3049 24.1865 11.8473C23.951 12.0867 23.9541 12.4685 24.1895 12.7048C24.4249 12.9411 24.8083 12.9381 25.0437 12.7018C25.6987 12.0352 26.2088 11.1898 26.559 10.1899C28.1768 6.64474 24.9984 3.20565 22.6773 0.693757C22.5203 0.524076 22.3694 0.360454 22.2215 0.199862C22.0193 -0.0213303 21.6872 -0.0607207 21.4397 0.105931C21.1922 0.272583 21.1047 0.596796 21.2315 0.869499C22.1611 2.83296 19.9698 6.0145 19.2755 6.94472C19.2695 6.95381 19.2634 6.9629 19.2574 6.97199C17.9293 8.97181 18.2674 11.2989 20.181 13.3593C20.6821 13.8986 21.3733 14.1926 22.0796 14.1926C22.0917 14.1926 22.1038 14.1926 22.1158 14.1926V14.9652H16.0458C15.7138 14.9652 15.4421 15.2379 15.4421 15.5712V33.3999C15.4421 33.7332 15.7138 34.0059 16.0458 34.0059H29.3932C29.7253 34.0059 29.9969 33.7332 29.9969 33.3999V28.9094C29.9969 28.9094 29.9969 28.8852 29.9969 28.8761L29.9999 28.87ZM20.3169 32.7909L28.7926 24.2795V28.6397L24.6513 32.7909H20.3169ZM16.6525 23.1918L23.4862 16.3348C23.5345 16.2863 23.5707 16.2318 23.5979 16.1742H28.5028L16.6555 28.0671V23.1918H16.6525ZM21.9378 16.1742L16.6525 21.4798V16.1742H21.9378ZM16.6525 29.6518C16.7582 29.6275 16.8608 29.576 16.9423 29.4912L28.7896 17.5983V22.5676L18.6054 32.7939H16.6495V29.6548L16.6525 29.6518ZM26.3597 32.7909L28.7926 30.3517V32.7909H26.3597Z" fill="white"/>
</g>
<defs>
<clipPath id="clip0_461_2615">
<rect width="30" height="34" fill="white"/>
</clipPath>
</defs>
</svg>
