<svg width="24" height="36" viewBox="0 0 24 36" fill="none" xmlns="http://www.w3.org/2000/svg">
<g clip-path="url(#clip0_461_2605)">
<path d="M23.2128 35.879H0.787191C0.421709 35.879 0.121826 35.581 0.121826 35.2178V8.0735C0.121826 7.71034 0.421709 7.41235 0.787191 7.41235H23.2128C23.5783 7.41235 23.8782 7.71034 23.8782 8.0735V35.2178C23.8782 35.581 23.5783 35.879 23.2128 35.879ZM1.45256 34.5567H22.5474V8.73465H1.45256V34.5567Z" fill="white" stroke="white" stroke-width="0.25" stroke-miterlimit="10"/>
<path d="M3.20512 6.4811C2.9146 6.4811 2.65221 6.29486 2.56786 6.00619C2.46478 5.65233 2.66158 5.28917 3.01769 5.18673L19.9798 0.139657C20.186 0.0837856 20.4015 0.121033 20.5702 0.242089C20.7389 0.363144 20.842 0.568007 20.842 0.77287V5.81064C20.842 6.1738 20.5421 6.47178 20.1766 6.47178C19.8111 6.47178 19.5112 6.1738 19.5112 5.81064V1.66682L3.40191 6.45316C3.33631 6.47178 3.27072 6.4811 3.21449 6.4811H3.20512Z" fill="white" stroke="white" stroke-width="0.25" stroke-miterlimit="10"/>
<path d="M13.8788 14.564H10.1209C9.75545 14.564 9.45557 14.266 9.45557 13.9028C9.45557 13.5397 9.75545 13.2417 10.1209 13.2417H13.8788C14.2443 13.2417 14.5442 13.5397 14.5442 13.9028C14.5442 14.266 14.2443 14.564 13.8788 14.564Z" fill="white"/>
<path d="M15.2285 17.1712H8.76229C8.39681 17.1712 8.09692 16.8732 8.09692 16.51C8.09692 16.1469 8.39681 15.8489 8.76229 15.8489H15.2285C15.594 15.8489 15.8939 16.1469 15.8939 16.51C15.8939 16.8732 15.594 17.1712 15.2285 17.1712Z" fill="white"/>
<path d="M11.9954 29.8913C9.26837 29.8913 7.04736 27.6843 7.04736 24.9746C7.04736 22.2648 9.26837 20.0579 11.9954 20.0579C14.7225 20.0579 16.9435 22.2648 16.9435 24.9746C16.9435 27.6843 14.7225 29.8913 11.9954 29.8913ZM11.9954 21.3802C9.99934 21.3802 8.37809 22.9911 8.37809 24.9746C8.37809 26.958 9.99934 28.569 11.9954 28.569C13.9915 28.569 15.6128 26.958 15.6128 24.9746C15.6128 22.9911 13.9915 21.3802 11.9954 21.3802Z" fill="white"/>
<path d="M11.9952 27.3585C11.0206 27.3585 10.3084 26.7253 10.0366 26.3528C9.82108 26.0548 9.88668 25.6451 10.1866 25.4309C10.4864 25.2168 10.8988 25.2819 11.1143 25.5706C11.1331 25.5892 11.4798 26.0269 12.0046 26.0269C12.3701 26.0269 12.67 26.3249 12.67 26.6881C12.67 27.0512 12.3701 27.3492 12.0046 27.3492L11.9952 27.3585Z" fill="white"/>
<path d="M11.9952 27.3584C11.6297 27.3584 11.3298 27.0604 11.3298 26.6973C11.3298 26.3341 11.6297 26.0361 11.9952 26.0361C12.52 26.0361 12.8761 25.5891 12.8761 25.5798C13.0916 25.2818 13.504 25.2167 13.8039 25.4308C14.1037 25.645 14.1693 26.0547 13.9538 26.3527C13.682 26.7252 12.9604 27.3584 11.9952 27.3584Z" fill="white"/>
<path d="M10.8145 24.714C10.4491 24.714 10.1492 24.416 10.1492 24.0528V23.8386C10.1492 23.4755 10.4491 23.1775 10.8145 23.1775C11.18 23.1775 11.4799 23.4755 11.4799 23.8386V24.0528C11.4799 24.416 11.18 24.714 10.8145 24.714Z" fill="white"/>
<path d="M13.2603 24.714C12.8949 24.714 12.595 24.416 12.595 24.0528V23.8386C12.595 23.4755 12.8949 23.1775 13.2603 23.1775C13.6258 23.1775 13.9257 23.4755 13.9257 23.8386V24.0528C13.9257 24.416 13.6258 24.714 13.2603 24.714Z" fill="white"/>
</g>
<defs>
<clipPath id="clip0_461_2605">
<rect width="24" height="36" fill="white"/>
</clipPath>
</defs>
</svg>
